# Blender v2.79 (sub 0) OBJ File: 'sock_retopo_three_four.blend'
# www.blender.org
o heel_Cylinder.000
v -3.876456 3.756114 -2.210932
v -3.413381 3.738799 -2.260447
v -3.227926 3.722676 -1.694800
v -4.060705 3.007077 -1.667028
v -3.246349 2.947871 -1.679653
v -3.326688 3.050791 -2.364701
v -3.888466 3.092694 -2.282692
v -3.966691 3.773242 -2.068786
v -3.244513 2.954021 -1.962375
v -3.269996 2.990548 -2.216741
v -3.954593 3.063805 -2.157464
v -4.016164 3.025052 -1.937425
v -4.129934 3.411354 -1.611544
v -4.141868 3.175211 -1.644894
v -3.894503 3.459979 -2.274296
v -3.906717 3.232983 -2.297125
v -3.104309 3.158281 -1.680794
v -3.157574 3.393452 -1.698369
v -3.304009 3.215274 -2.379300
v -3.349231 3.456815 -2.326340
v -4.067300 3.437031 -1.892699
v -4.082286 3.198622 -1.917908
v -3.994558 3.451011 -2.113424
v -4.002891 3.221388 -2.143973
v -3.114726 3.184219 -1.962624
v -3.161181 3.441711 -1.946707
v -3.181743 3.203712 -2.217177
v -3.223482 3.453850 -2.169482
v -3.751497 3.764690 -2.301142
v -3.835754 2.930158 -1.679356
v -3.529728 2.921971 -1.680405
v -3.762832 3.046690 -2.367814
v -3.519778 3.019569 -2.408473
v -3.821588 2.934770 -1.957553
v -3.524270 2.921829 -1.960666
v -3.796368 2.966114 -2.203455
v -3.519431 2.941814 -2.216481
v -3.537659 3.478067 -2.401933
v -3.756963 3.474215 -2.374445
v -3.520991 3.223541 -2.455502
v -3.771378 3.226571 -2.408930
v -3.825850 3.758830 -2.258012
v -3.386594 2.925964 -1.680027
v -3.297485 3.022376 -2.305310
v -4.118513 3.085928 -1.657745
v -3.409224 3.031885 -2.392587
v -3.902077 3.149643 -2.290881
v -3.194627 3.546854 -1.704051
v -4.043338 3.016277 -1.807390
v -3.381892 3.591142 -2.294515
v -3.924316 3.768152 -2.146651
v -3.245639 2.948062 -1.822693
v -3.253258 2.966731 -2.094258
v -3.917841 3.076400 -2.230010
v -3.987059 3.041677 -2.054536
v -3.384963 2.926750 -1.961178
v -3.388137 2.950011 -2.218838
v -4.064575 3.108148 -1.929857
v -3.986618 3.130344 -2.150524
v -3.190181 3.584016 -1.930490
v -3.252826 3.588694 -2.140419
v -4.113739 3.567018 -1.589028
v -4.142303 3.289477 -1.629876
v -3.890236 3.597780 -2.239756
v -3.901248 3.340388 -2.294309
v -3.123709 3.041095 -1.672356
v -3.127011 3.274412 -1.687148
v -3.306558 3.122097 -2.383685
v -3.321292 3.333308 -2.356668
v -4.050850 3.596102 -1.872567
v -4.081062 3.314311 -1.907312
v -3.980175 3.602626 -2.088886
v -4.001841 3.331873 -2.137263
v -3.130272 3.056095 -1.963102
v -3.135539 3.313161 -1.957457
v -3.190120 3.090138 -2.223710
v -3.198627 3.329096 -2.196304
v -3.183197 3.450882 -2.060418
v -3.140491 3.195068 -2.094825
v -3.154281 3.424310 -1.831509
v -3.103746 3.172029 -1.823462
v -4.045970 3.209456 -2.036935
v -4.033288 3.445795 -2.009802
v -4.113444 3.185939 -1.786295
v -4.099645 3.425381 -1.756202
v -3.832263 3.467939 -2.330208
v -3.851517 3.228306 -2.353052
v -3.955751 3.230886 -2.229344
v -3.949579 3.455797 -2.200870
v -3.278471 3.455246 -2.257946
v -3.235098 3.210357 -2.311745
v -3.656568 3.769813 -2.326039
v -3.965319 2.953681 -1.675730
v -3.684254 2.923580 -1.680341
v -3.836445 3.075763 -2.328355
v -3.652916 3.023276 -2.401508
v -3.940341 2.970278 -1.950472
v -3.675586 2.923209 -1.960137
v -3.893796 3.011598 -2.182208
v -3.664597 2.942341 -2.214701
v -3.439013 3.470447 -2.374780
v -3.659985 3.479122 -2.401682
v -3.402917 3.220956 -2.430188
v -3.656698 3.225317 -2.451154
v -3.528573 3.348907 -2.433826
v -3.765992 3.345445 -2.398022
v -3.549527 3.616413 -2.364826
v -3.757968 3.613525 -2.338051
v -3.521602 2.926289 -2.090928
v -3.810518 2.944843 -2.084404
v -3.527043 2.921019 -1.822621
v -3.829413 2.931268 -1.820940
v -3.519037 3.112606 -2.455576
v -3.771601 3.126178 -2.402442
v -3.519161 2.971170 -2.321458
v -3.778735 2.998122 -2.297748
v -3.659499 2.972750 -2.318743
v -3.398486 2.981798 -2.317419
v -3.657370 3.115660 -2.446179
v -3.401514 3.117994 -2.431483
v -3.680642 2.922567 -1.822567
v -3.385306 2.925248 -1.822542
v -3.671006 2.927473 -2.090086
v -3.385710 2.933304 -2.092515
v -3.659959 3.619029 -2.365054
v -3.465144 3.606213 -2.340394
v -3.659892 3.349705 -2.432667
v -3.417032 3.343765 -2.406773
v -3.251951 3.332271 -2.287681
v -3.310061 3.589535 -2.226168
v -3.953929 3.337558 -2.225192
v -3.945567 3.142968 -2.228282
v -3.844603 3.342409 -2.347875
v -3.832530 3.606364 -2.293780
v -4.113034 3.302227 -1.773004
v -4.094139 3.099277 -1.798724
v -4.044594 3.324421 -2.028927
v -4.028538 3.116903 -2.047295
v -3.125569 3.296367 -1.826224
v -3.186252 3.574894 -1.826745
v -3.159583 3.323904 -2.082400
v -3.211005 3.588019 -2.036935
v -3.151220 3.071141 -2.096035
v -3.120679 3.043134 -1.822763
v -4.018216 3.601427 -1.986934
v -4.083694 3.586719 -1.733413
v -3.920808 2.985319 -2.072018
v -3.955359 2.961359 -1.816813
v -3.846785 3.139891 -2.349016
v -3.861524 3.037551 -2.267198
v -3.939433 3.601838 -2.169757
v -3.243676 3.106675 -2.319083
v -4.072170 3.772902 -1.719873
v -4.097120 3.757208 -1.576220
v -3.341336 3.735778 -2.192513
v -4.007620 3.776284 -1.967371
v -4.041270 3.776912 -1.851823
v -3.215513 3.731016 -1.822930
v -3.220582 3.734812 -1.919778
v -3.242510 3.737274 -2.016063
v -3.282470 3.736462 -2.107866
v -3.489759 3.752369 -2.303760
v -3.564147 3.765302 -2.324830
vt 0.613471 0.284706
vt 0.595324 0.305152
vt 0.584998 0.289310
vt 0.593059 0.271384
vt 0.327908 0.108703
vt 0.304371 0.025321
vt 0.348647 0.022910
vt 0.368237 0.102955
vt 0.435825 0.302175
vt 0.412059 0.298473
vt 0.426504 0.285428
vt 0.447447 0.283029
vt 0.443122 0.263760
vt 0.419092 0.268691
vt 0.332634 0.448211
vt 0.288253 0.423820
vt 0.330622 0.380465
vt 0.366473 0.397850
vt 0.393925 0.357967
vt 0.363768 0.344516
vt 0.390789 0.315476
vt 0.417139 0.325138
vt 0.110669 0.188043
vt 0.070131 0.097664
vt 0.137517 0.070102
vt 0.177783 0.156737
vt 0.233660 0.134479
vt 0.199223 0.049466
vt 0.256788 0.034197
vt 0.285122 0.118654
vt 0.738506 0.430028
vt 0.671433 0.467961
vt 0.647837 0.409683
vt 0.701143 0.376944
vt 0.668787 0.337162
vt 0.626220 0.364664
vt 0.608851 0.329154
vt 0.638106 0.304873
vt 0.784710 0.140571
vt 0.754359 0.205688
vt 0.704524 0.186733
vt 0.728718 0.123460
vt 0.724832 0.256944
vt 0.697393 0.301169
vt 0.658865 0.275074
vt 0.681490 0.235394
vt 0.894142 0.186770
vt 0.857801 0.266845
vt 0.805497 0.232067
vt 0.840038 0.161707
vt 0.825163 0.330992
vt 0.785975 0.384796
vt 0.739138 0.337059
vt 0.773521 0.288249
vt 0.338829 0.322720
vt 0.314823 0.293678
vt 0.352901 0.269546
vt 0.372140 0.297553
vt 0.291365 0.251521
vt 0.265302 0.203299
vt 0.311641 0.185147
vt 0.334983 0.230590
vt 0.251283 0.393723
vt 0.220160 0.362412
vt 0.271235 0.323818
vt 0.298940 0.353765
vt 0.185691 0.315355
vt 0.152094 0.261790
vt 0.213384 0.228362
vt 0.241901 0.279682
vt 0.404394 0.093567
vt 0.421696 0.153287
vt 0.388716 0.161896
vt 0.429231 0.200562
vt 0.436125 0.237988
vt 0.411205 0.242997
vt 0.402394 0.207103
vt 0.397160 0.280186
vt 0.384355 0.252823
vt 0.371395 0.216202
vt 0.351910 0.171839
vt 0.678062 0.110919
vt 0.661551 0.173892
vt 0.622386 0.164060
vt 0.630235 0.101586
vt 0.645067 0.221403
vt 0.628317 0.258776
vt 0.602057 0.247991
vt 0.612926 0.211214
vt 0.578488 0.199842
vt 0.572423 0.238002
vt 0.539069 0.231937
vt 0.541202 0.193034
vt 0.497971 0.191257
vt 0.500825 0.230036
vt 0.465402 0.232747
vt 0.460959 0.195269
vt 0.585561 0.089133
vt 0.583196 0.151751
vt 0.543311 0.144890
vt 0.543948 0.082057
vt 0.491923 0.080671
vt 0.495457 0.143682
vt 0.456014 0.147222
vt 0.444493 0.086300
vt 0.581804 0.378991
vt 0.535074 0.384943
vt 0.535001 0.343909
vt 0.573708 0.338979
vt 0.482961 0.381613
vt 0.434336 0.371299
vt 0.450866 0.334168
vt 0.491415 0.341325
vt 0.604974 0.489536
vt 0.535456 0.497259
vt 0.535281 0.434799
vt 0.592250 0.428304
vt 0.460568 0.491203
vt 0.390469 0.472863
vt 0.414597 0.416302
vt 0.473238 0.430438
vt 0.566724 0.265143
vt 0.562683 0.288349
vt 0.535161 0.287179
vt 0.536851 0.261441
vt 0.501744 0.259814
vt 0.502293 0.285918
vt 0.471908 0.284616
vt 0.469326 0.261188
vt 0.566898 0.311121
vt 0.534912 0.312717
vt 0.497406 0.310747
vt 0.463528 0.306955
vt 0.534893 0.574612
vt 0.444835 0.565840
vt 0.360642 0.541861
vt 0.703553 0.542572
vt 0.620103 0.566883
vt 0.487953 0.000077
vt 0.432764 0.005927
vt 0.540853 0.000076
vt 0.585877 0.007469
vt 0.637655 0.018164
vt 0.696662 0.027678
vt 0.757638 0.041993
vt 0.385540 0.015381
vt 0.159604 0.407706
vt 0.121520 0.357297
vt 0.084808 0.301046
vt 0.238489 0.478887
vt 0.195851 0.444302
vt 0.919738 0.319253
vt 0.884153 0.388196
vt 0.838791 0.446755
vt 0.926427 0.097864
vt 0.871237 0.078055
vt 0.999924 0.127168
vt 0.957547 0.228657
vt 0.815541 0.058638
vt 0.785965 0.497118
vt 0.042481 0.227396
vt 0.000076 0.133706
vt 0.292017 0.510706
vn 0.7619 -0.2655 -0.5908
vn 0.5323 -0.6826 -0.5006
vn 0.4830 -0.5449 -0.6853
vn 0.5758 -0.1868 -0.7960
vn -0.8397 0.1577 -0.5197
vn -0.8401 0.1480 -0.5217
vn -0.7418 0.1778 -0.6466
vn -0.7405 0.1814 -0.6471
vn -0.5931 -0.6359 -0.4937
vn -0.7461 -0.4406 -0.4992
vn -0.7188 -0.3730 -0.5866
vn -0.6095 -0.4553 -0.6490
vn -0.6480 -0.1974 -0.7356
vn -0.7607 -0.1837 -0.6226
vn -0.3942 -0.9145 -0.0909
vn -0.7082 -0.6873 -0.1615
vn -0.7344 -0.6419 -0.2205
vn -0.4542 -0.8787 -0.1469
vn -0.5177 -0.8202 -0.2434
vn -0.7574 -0.5769 -0.3059
vn -0.7650 -0.4989 -0.4073
vn -0.5701 -0.7379 -0.3611
vn -0.9739 0.1035 -0.2019
vn -0.9762 0.0812 -0.2008
vn -0.9653 0.0809 -0.2482
vn -0.9634 0.1053 -0.2464
vn -0.9431 0.1164 -0.3113
vn -0.9442 0.0951 -0.3151
vn -0.9047 0.1191 -0.4091
vn -0.9051 0.1347 -0.4032
vn 0.8663 -0.4979 -0.0396
vn 0.4048 -0.9141 -0.0235
vn 0.4455 -0.8912 -0.0847
vn 0.8803 -0.4564 -0.1294
vn 0.8826 -0.4044 -0.2395
vn 0.4914 -0.8534 -0.1740
vn 0.5300 -0.7850 -0.3207
vn 0.8522 -0.3397 -0.3979
vn 0.9326 0.2371 -0.2721
vn 0.9396 0.2314 -0.2522
vn 0.8672 0.2701 -0.4183
vn 0.8523 0.2743 -0.4453
vn 0.9496 0.1962 -0.2444
vn 0.9680 0.0430 -0.2469
vn 0.9125 0.0691 -0.4032
vn 0.8878 0.2255 -0.4012
vn 0.9793 0.1990 0.0374
vn 0.9758 0.2173 0.0236
vn 0.9723 0.2106 -0.1017
vn 0.9721 0.2093 -0.1052
vn 0.9799 0.1993 -0.0002
vn 0.9994 0.0208 -0.0269
vn 0.9917 0.0264 -0.1259
vn 0.9762 0.1864 -0.1107
vn -0.8960 -0.2878 -0.3382
vn -0.9407 -0.0529 -0.3351
vn -0.9021 -0.0441 -0.4293
vn -0.8674 -0.2482 -0.4313
vn -0.9437 0.0846 -0.3197
vn -0.9419 0.1360 -0.3072
vn -0.9062 0.1422 -0.3983
vn -0.9054 0.0851 -0.4160
vn -0.9128 -0.3523 -0.2067
vn -0.9732 -0.0810 -0.2150
vn -0.9628 -0.0623 -0.2629
vn -0.9115 -0.3166 -0.2624
vn -0.9748 0.0797 -0.2083
vn -0.9704 0.1292 -0.2038
vn -0.9608 0.1323 -0.2437
vn -0.9643 0.0837 -0.2513
vn -0.5988 0.2062 -0.7739
vn -0.5958 0.1889 -0.7806
vn -0.7369 0.1698 -0.6543
vn -0.6152 0.1237 -0.7786
vn -0.6431 0.0018 -0.7658
vn -0.7613 -0.0140 -0.6482
vn -0.7438 0.1061 -0.6599
vn -0.8253 -0.2080 -0.5250
vn -0.8434 -0.0299 -0.5364
vn -0.8396 0.0921 -0.5353
vn -0.8403 0.1538 -0.5199
vn 0.7333 0.3025 -0.6088
vn 0.7450 0.3049 -0.5933
vn 0.5786 0.3116 -0.7537
vn 0.5825 0.3065 -0.7528
vn 0.7664 0.2593 -0.5876
vn 0.7936 0.1009 -0.6000
vn 0.5907 0.1211 -0.7978
vn 0.5807 0.2679 -0.7688
vn 0.3593 0.2478 -0.8997
vn 0.3425 0.1143 -0.9325
vn 0.0921 0.0854 -0.9921
vn 0.1156 0.2144 -0.9699
vn -0.1637 0.1814 -0.9697
vn -0.1874 0.0515 -0.9809
vn -0.4574 0.0235 -0.8889
vn -0.4279 0.1481 -0.8916
vn 0.3988 0.2902 -0.8699
vn 0.3814 0.2895 -0.8779
vn 0.1375 0.2611 -0.9554
vn 0.1540 0.2698 -0.9505
vn -0.1314 0.2518 -0.9588
vn -0.1428 0.2380 -0.9607
vn -0.3994 0.2132 -0.8916
vn -0.3941 0.2325 -0.8891
vn 0.1488 -0.9832 -0.1061
vn 0.0205 -0.9965 -0.0807
vn 0.0275 -0.9787 -0.2036
vn 0.1919 -0.9511 -0.2420
vn -0.0700 -0.9931 -0.0943
vn -0.2508 -0.9555 -0.1551
vn -0.3226 -0.9030 -0.2838
vn -0.1004 -0.9703 -0.2199
vn 0.0991 -0.9951 -0.0060
vn 0.0103 -0.9999 -0.0001
vn 0.0143 -0.9996 -0.0222
vn 0.1172 -0.9923 -0.0386
vn -0.0351 -0.9994 -0.0049
vn -0.1482 -0.9884 -0.0326
vn -0.1913 -0.9789 -0.0715
vn -0.0477 -0.9984 -0.0300
vn 0.3211 -0.1967 -0.9264
vn 0.2699 -0.6303 -0.7279
vn 0.0553 -0.6745 -0.7362
vn 0.0715 -0.2301 -0.9705
vn -0.2102 -0.2395 -0.9478
vn -0.1863 -0.6560 -0.7314
vn -0.4311 -0.5709 -0.6987
vn -0.4706 -0.2260 -0.8529
vn 0.2286 -0.8708 -0.4352
vn 0.0393 -0.9147 -0.4022
vn -0.1443 -0.8957 -0.4205
vn -0.3863 -0.7960 -0.4659
vn 0.0091 -0.9999 0.0065
vn -0.0309 -0.9995 0.0022
vn -0.1320 -0.9910 -0.0230
vn 0.3963 -0.9181 0.0023
vn 0.0932 -0.9956 0.0046
vn -0.1262 0.2519 -0.9595
vn -0.3890 0.2344 -0.8909
vn 0.1457 0.2680 -0.9523
vn 0.3931 0.2853 -0.8741
vn 0.5807 0.2970 -0.7580
vn 0.7311 0.2940 -0.6156
vn 0.8496 0.2686 -0.4539
vn -0.6002 0.2073 -0.7725
vn -0.9765 -0.0844 -0.1980
vn -0.9780 0.0782 -0.1932
vn -0.9736 0.1275 -0.1890
vn -0.7017 -0.6986 -0.1397
vn -0.9122 -0.3653 -0.1852
vn 0.9701 0.2302 0.0761
vn 0.9775 0.2062 0.0442
vn 0.9998 0.0023 0.0161
vn 0.9817 0.1867 0.0368
vn 0.9721 0.2056 -0.1130
vn 0.9778 0.1801 0.1072
vn 0.9740 0.2029 0.1004
vn 0.9301 0.2349 -0.2825
vn 0.8565 -0.5160 0.0032
vn -0.9774 0.1064 -0.1829
vn -0.9805 0.0857 -0.1767
vn -0.3750 -0.9240 -0.0745
s 1
f 152/1/1 44/2/2 6/3/3 68/4/4
f 151/5/5 51/6/6 1/7/7 64/8/8
f 150/9/9 54/10/10 7/11/11 95/12/12
f 149/13/13 95/12/12 7/11/11 47/14/14
f 148/15/15 49/16/16 12/17/17 97/18/18
f 147/19/19 55/20/20 11/21/21 99/22/22
f 146/23/23 153/24/24 157/25/25 70/26/26
f 145/27/27 156/28/28 8/29/29 72/30/30
f 144/31/31 52/32/32 9/33/33 74/34/34
f 143/35/35 53/36/36 10/37/37 76/38/38
f 142/39/39 78/40/40 28/41/41 61/42/42
f 141/43/43 79/44/44 27/45/45 77/46/46
f 140/47/47 80/48/48 26/49/49 60/50/50
f 139/51/51 81/52/52 25/53/53 75/54/54
f 138/55/55 82/56/56 24/57/57 59/58/58
f 137/59/59 83/60/60 23/61/61 73/62/62
f 136/63/63 84/64/64 22/65/65 58/66/66
f 135/67/67 85/68/68 21/69/69 71/70/70
f 134/71/71 86/72/72 15/73/73 64/8/8
f 133/74/74 87/75/75 16/76/76 65/77/77
f 132/78/78 88/79/79 16/76/76 47/14/14
f 131/80/80 89/81/81 15/73/73 65/77/77
f 130/82/82 90/83/83 20/84/84 50/85/85
f 129/86/86 91/87/87 19/88/88 69/89/89
f 128/90/90 103/91/91 40/92/92 105/93/93
f 127/94/94 104/95/95 41/96/96 106/97/97
f 126/98/98 101/99/99 38/100/100 107/101/101
f 125/102/102 102/103/103 39/104/104 108/105/105
f 124/106/106 109/107/107 37/108/108 57/109/109
f 123/110/110 110/111/111 36/112/112 100/113/113
f 122/114/114 111/115/115 35/116/116 56/117/117
f 121/118/118 112/119/119 34/120/120 98/121/121
f 120/122/122 46/123/123 33/124/124 113/125/125
f 119/126/126 96/127/127 32/128/128 114/129/129
f 118/130/130 115/131/131 33/124/124 46/123/123
f 117/132/132 116/133/133 32/128/128 96/127/127
f 115/131/131 117/132/132 96/127/127 33/124/124
f 37/108/108 100/113/113 117/132/132 115/131/131
f 100/113/113 36/112/112 116/133/133 117/132/132
f 44/2/2 118/130/130 46/123/123 6/3/3
f 10/37/37 57/109/109 118/130/130 44/2/2
f 57/109/109 37/108/108 115/131/131 118/130/130
f 104/95/95 119/126/126 114/129/129 41/96/96
f 40/92/92 113/125/125 119/126/126 104/95/95
f 113/125/125 33/124/124 96/127/127 119/126/126
f 103/91/91 120/122/122 113/125/125 40/92/92
f 19/88/88 68/4/4 120/122/122 103/91/91
f 68/4/4 6/3/3 46/123/123 120/122/122
f 111/115/115 121/118/118 98/121/121 35/116/116
f 31/134/134 94/135/135 121/118/118 111/115/115
f 94/135/135 30/136/136 112/119/119 121/118/118
f 52/32/32 122/114/114 56/117/117 9/33/33
f 5/137/137 43/138/138 122/114/114 52/32/32
f 43/138/138 31/134/134 111/115/115 122/114/114
f 109/107/107 123/110/110 100/113/113 37/108/108
f 35/116/116 98/121/121 123/110/110 109/107/107
f 98/121/121 34/120/120 110/111/111 123/110/110
f 53/36/36 124/106/106 57/109/109 10/37/37
f 9/33/33 56/117/117 124/106/106 53/36/36
f 56/117/117 35/116/116 109/107/107 124/106/106
f 92/139/139 125/102/102 108/105/105 29/140/140
f 163/141/141 107/101/101 125/102/102 92/139/139
f 107/101/101 38/100/100 102/103/103 125/102/102
f 162/142/142 126/98/98 107/101/101 163/141/141
f 2/143/143 50/85/85 126/98/98 162/142/142
f 50/85/85 20/84/84 101/99/99 126/98/98
f 102/103/103 127/94/94 106/97/97 39/104/104
f 38/100/100 105/93/93 127/94/94 102/103/103
f 105/93/93 40/92/92 104/95/95 127/94/94
f 101/99/99 128/90/90 105/93/93 38/100/100
f 20/84/84 69/89/89 128/90/90 101/99/99
f 69/89/89 19/88/88 103/91/91 128/90/90
f 90/83/83 129/86/86 69/89/89 20/84/84
f 28/41/41 77/46/46 129/86/86 90/83/83
f 77/46/46 27/45/45 91/87/87 129/86/86
f 155/144/144 130/82/82 50/85/85 2/143/143
f 161/145/145 61/42/42 130/82/82 155/144/144
f 61/42/42 28/41/41 90/83/83 130/82/82
f 88/79/79 131/80/80 65/77/77 16/76/76
f 24/57/57 73/62/62 131/80/80 88/79/79
f 73/62/62 23/61/61 89/81/81 131/80/80
f 54/10/10 132/78/78 47/14/14 7/11/11
f 11/21/21 59/58/58 132/78/78 54/10/10
f 59/58/58 24/57/57 88/79/79 132/78/78
f 86/72/72 133/74/74 65/77/77 15/73/73
f 39/104/104 106/97/97 133/74/74 86/72/72
f 106/97/97 41/96/96 87/75/75 133/74/74
f 42/146/146 134/71/71 64/8/8 1/7/7
f 29/140/140 108/105/105 134/71/71 42/146/146
f 108/105/105 39/104/104 86/72/72 134/71/71
f 84/64/64 135/67/67 71/70/70 22/65/65
f 14/147/147 63/148/148 135/67/67 84/64/64
f 63/148/148 13/149/149 85/68/68 135/67/67
f 49/16/16 136/63/63 58/66/66 12/17/17
f 4/150/150 45/151/151 136/63/63 49/16/16
f 45/151/151 14/147/147 84/64/64 136/63/63
f 82/56/56 137/59/59 73/62/62 24/57/57
f 22/65/65 71/70/70 137/59/59 82/56/56
f 71/70/70 21/69/69 83/60/60 137/59/59
f 55/20/20 138/55/55 59/58/58 11/21/21
f 12/17/17 58/66/66 138/55/55 55/20/20
f 58/66/66 22/65/65 82/56/56 138/55/55
f 80/48/48 139/51/51 75/54/54 26/49/49
f 18/152/152 67/153/153 139/51/51 80/48/48
f 67/153/153 17/154/154 81/52/52 139/51/51
f 158/155/155 140/47/47 60/50/50 159/156/156
f 3/157/157 48/158/158 140/47/47 158/155/155
f 48/158/158 18/152/152 80/48/48 140/47/47
f 78/40/40 141/43/43 77/46/46 28/41/41
f 26/49/49 75/54/54 141/43/43 78/40/40
f 75/54/54 25/53/53 79/44/44 141/43/43
f 160/159/159 142/39/39 61/42/42 161/145/145
f 159/156/156 60/50/50 142/39/39 160/159/159
f 60/50/50 26/49/49 78/40/40 142/39/39
f 79/44/44 143/35/35 76/38/38 27/45/45
f 25/53/53 74/34/34 143/35/35 79/44/44
f 74/34/34 9/33/33 53/36/36 143/35/35
f 81/52/52 144/31/31 74/34/34 25/53/53
f 17/154/154 66/160/160 144/31/31 81/52/52
f 66/160/160 5/137/137 52/32/32 144/31/31
f 83/60/60 145/27/27 72/30/30 23/61/61
f 21/69/69 70/26/26 145/27/27 83/60/60
f 70/26/26 157/25/25 156/28/28 145/27/27
f 85/68/68 146/23/23 70/26/26 21/69/69
f 13/149/149 62/161/161 146/23/23 85/68/68
f 62/161/161 154/162/162 153/24/24 146/23/23
f 110/111/111 147/19/19 99/22/22 36/112/112
f 34/120/120 97/18/18 147/19/19 110/111/111
f 97/18/18 12/17/17 55/20/20 147/19/19
f 112/119/119 148/15/15 97/18/18 34/120/120
f 30/136/136 93/163/163 148/15/15 112/119/119
f 93/163/163 4/150/150 49/16/16 148/15/15
f 87/75/75 149/13/13 47/14/14 16/76/76
f 41/96/96 114/129/129 149/13/13 87/75/75
f 114/129/129 32/128/128 95/12/12 149/13/13
f 116/133/133 150/9/9 95/12/12 32/128/128
f 36/112/112 99/22/22 150/9/9 116/133/133
f 99/22/22 11/21/21 54/10/10 150/9/9
f 89/81/81 151/5/5 64/8/8 15/73/73
f 23/61/61 72/30/30 151/5/5 89/81/81
f 72/30/30 8/29/29 51/6/6 151/5/5
f 91/87/87 152/1/1 68/4/4 19/88/88
f 27/45/45 76/38/38 152/1/1 91/87/87
f 76/38/38 10/37/37 44/2/2 152/1/1
