# Blender v2.79 (sub 0) OBJ File: 'sock_retopo_three_four.blend'
# www.blender.org
o welt_Cylinder.002
v -4.407753 7.266374 -1.724809
v -4.091639 7.264832 -2.383219
v -3.339561 7.268184 -2.343268
v -3.011339 7.292431 -1.689124
v -3.332515 7.295803 -1.018833
v -4.039823 7.285679 -1.025130
v -4.400443 6.932272 -1.723127
v -4.085621 6.923743 -2.386263
v -3.330667 6.928626 -2.345796
v -3.039007 6.950160 -1.706187
v -3.339584 6.971419 -1.049669
v -4.045569 6.966303 -1.047148
v -4.396879 7.270764 -1.960966
v -4.285616 7.272445 -2.215720
v -3.154380 7.277802 -2.173800
v -3.037505 7.283580 -1.936427
v -3.163326 6.930433 -2.175870
v -3.060335 6.936920 -1.943477
v -4.389604 6.925940 -1.960419
v -4.281127 6.923601 -2.212979
v -3.049355 7.295125 -1.459150
v -3.163024 7.294120 -1.209301
v -3.078249 6.957329 -1.479155
v -3.187157 6.964694 -1.233110
v -3.545333 7.287116 -0.909721
v -3.828765 7.286107 -0.914632
v -3.547484 6.964476 -0.934639
v -3.827304 6.964107 -0.936169
v -4.216999 7.279966 -1.214998
v -4.348633 7.274642 -1.469465
v -4.216755 6.953653 -1.229884
v -4.343951 6.940732 -1.475647
v -3.842349 7.272596 -2.462970
v -3.556033 7.271643 -2.439945
v -3.837098 6.922090 -2.470298
v -3.550837 6.922874 -2.450771
v -4.408316 7.115965 -1.725383
v -4.191610 7.268626 -2.313726
v -3.437740 7.269001 -2.396353
v -3.014742 7.287104 -1.812122
v -3.240492 7.294697 -1.105334
v -3.947876 7.286606 -0.964339
v -4.387212 7.270141 -1.599049
v -4.090613 7.112625 -2.389272
v -4.078485 6.731290 -2.375257
v -3.333169 7.115728 -2.347275
v -3.335441 6.737075 -2.335675
v -3.020906 7.134328 -1.697592
v -3.063717 6.765239 -1.712937
v -3.335192 7.147681 -1.030577
v -3.347505 6.792937 -1.070604
v -4.043694 7.142282 -1.033493
v -4.043555 6.784881 -1.064268
v -4.380432 6.936149 -1.600703
v -3.948817 6.966081 -0.984731
v -3.255338 6.968194 -1.134554
v -3.040781 6.943468 -1.826442
v -3.429969 6.924917 -2.404832
v -4.190185 6.923907 -2.313143
v -4.410495 7.268288 -1.839062
v -4.357473 7.272624 -2.091929
v -3.243746 7.273108 -2.270677
v -3.084161 7.280425 -2.059326
v -3.241304 6.930173 -2.270118
v -3.100436 6.931503 -2.061389
v -4.403566 6.928720 -1.838020
v -4.350930 6.923987 -2.089936
v -4.371070 6.736895 -1.957652
v -4.266692 6.731817 -2.200358
v -3.178746 6.741046 -2.164437
v -3.085129 6.751683 -1.941377
v -3.155145 7.120857 -2.179423
v -3.043365 7.122766 -1.942736
v -4.398879 7.114997 -1.961403
v -4.288183 7.114831 -2.218105
v -3.023278 7.294703 -1.572700
v -3.096480 7.294556 -1.333606
v -3.052125 6.953679 -1.590846
v -3.124434 6.960788 -1.354137
v -3.101400 6.775654 -1.488655
v -3.204159 6.786331 -1.250991
v -3.060305 7.139372 -1.468886
v -3.172387 7.142849 -1.219143
v -3.429349 7.291254 -0.954660
v -3.686630 7.285517 -0.890015
v -3.435020 6.967581 -0.982165
v -3.688997 6.963196 -0.915964
v -3.552417 6.788072 -0.954220
v -3.823224 6.786766 -0.954296
v -3.545386 7.139842 -0.918291
v -3.829616 7.140399 -0.922425
v -4.129547 7.282465 -1.107236
v -4.291365 7.277564 -1.339082
v -4.134174 6.960248 -1.128308
v -4.288717 6.946529 -1.349032
v -4.211877 6.772345 -1.243442
v -4.331760 6.757617 -1.479011
v -4.218808 7.132411 -1.220363
v -4.349153 7.123393 -1.472337
v -3.978274 7.268182 -2.433393
v -3.695507 7.273515 -2.465177
v -3.969957 6.922719 -2.438844
v -3.691731 6.922081 -2.475749
v -3.831156 6.729322 -2.461727
v -3.553217 6.730911 -2.444561
v -3.840611 7.114162 -2.469937
v -3.551993 7.113669 -2.448779
v -3.693454 7.114263 -2.473023
v -3.975795 7.113616 -2.440168
v -4.292186 7.127501 -1.342980
v -4.132795 7.137181 -1.115190
v -3.688580 7.138993 -0.898895
v -3.430950 7.143130 -0.965100
v -3.107523 7.140888 -1.342900
v -3.034016 7.137199 -1.581155
v -4.359987 7.115055 -2.093105
v -4.411740 7.115231 -1.838854
v -3.087297 7.120105 -2.064788
v -3.240169 7.119888 -2.273807
v -4.387259 7.119653 -1.600350
v -3.950744 7.142120 -0.972542
v -3.245387 7.145101 -1.118076
v -3.022658 7.127746 -1.820105
v -3.431419 7.113838 -2.403313
v -4.193470 7.113945 -2.317585
v -3.690140 6.729397 -2.467471
v -3.962784 6.730120 -2.430027
v -4.280116 6.764713 -1.357566
v -4.131446 6.779611 -1.144416
v -3.689083 6.786848 -0.936910
v -3.441912 6.790663 -1.002551
v -3.145057 6.781045 -1.367833
v -3.075902 6.770271 -1.599658
v -3.121857 6.745057 -2.054192
v -3.251346 6.737526 -2.257876
v -4.332955 6.733405 -2.082237
v -4.386456 6.741460 -1.836729
v -4.384328 6.746550 -1.720450
v -4.179158 6.731587 -2.299125
v -3.433769 6.733929 -2.398056
v -3.066210 6.758632 -1.829114
v -3.269964 6.790341 -1.152345
v -3.944198 6.786743 -1.001297
v -4.365920 6.751610 -1.600456
vt 0.881581 0.077149
vt 0.886298 0.044340
vt 0.912149 0.049134
vt 0.907920 0.081535
vt 0.063903 0.085087
vt 0.056997 0.052375
vt 0.080729 0.047965
vt 0.087596 0.080100
vt 0.220208 0.054108
vt 0.217092 0.019942
vt 0.243229 0.015128
vt 0.245995 0.049117
vt 0.380710 0.033866
vt 0.380247 0.001541
vt 0.407453 0.000042
vt 0.407564 0.031992
vt 0.548635 0.035137
vt 0.549189 0.003958
vt 0.572943 0.005777
vt 0.572456 0.036739
vt 0.716363 0.054783
vt 0.719500 0.022533
vt 0.746786 0.026316
vt 0.743293 0.058503
vt 0.707278 0.133460
vt 0.712044 0.093912
vt 0.738381 0.097521
vt 0.733245 0.137264
vt 0.545453 0.111693
vt 0.547126 0.072968
vt 0.571778 0.074632
vt 0.570759 0.113842
vt 0.383055 0.110652
vt 0.381646 0.072062
vt 0.407253 0.070053
vt 0.407318 0.108790
vt 0.228735 0.133374
vt 0.224166 0.093526
vt 0.249490 0.088649
vt 0.253420 0.128616
vt 0.079569 0.164995
vt 0.071724 0.124718
vt 0.095778 0.119183
vt 0.104112 0.159512
vt 0.868861 0.157873
vt 0.875410 0.117048
vt 0.902202 0.121366
vt 0.895720 0.162165
vt 0.758086 0.141093
vt 0.762719 0.100989
vt 0.788750 0.104641
vt 0.784106 0.145101
vt 0.811896 0.149308
vt 0.817232 0.108661
vt 0.846983 0.112887
vt 0.840747 0.153590
vt 0.128367 0.154733
vt 0.120238 0.114125
vt 0.145852 0.109232
vt 0.153324 0.149355
vt 0.179561 0.143937
vt 0.173238 0.104128
vt 0.199287 0.098671
vt 0.204631 0.138458
vt 0.112308 0.074426
vt 0.106079 0.042059
vt 0.133911 0.035851
vt 0.138923 0.069196
vt 0.166910 0.064316
vt 0.162372 0.030196
vt 0.190252 0.024839
vt 0.194105 0.059178
vt 0.767398 0.061411
vt 0.771360 0.028776
vt 0.797690 0.031517
vt 0.793479 0.064617
vt 0.822438 0.068342
vt 0.826939 0.035001
vt 0.857445 0.039276
vt 0.852741 0.072652
vt 0.277707 0.124553
vt 0.274102 0.084865
vt 0.298488 0.081379
vt 0.302022 0.120707
vt 0.329513 0.116864
vt 0.326907 0.077874
vt 0.356020 0.074602
vt 0.357585 0.113350
vt 0.270850 0.045385
vt 0.268220 0.011474
vt 0.293189 0.008562
vt 0.295399 0.042164
vt 0.324135 0.039036
vt 0.322000 0.005869
vt 0.352333 0.003478
vt 0.354021 0.036135
vt 0.432460 0.108386
vt 0.432351 0.069993
vt 0.458545 0.070303
vt 0.458534 0.108524
vt 0.488289 0.109106
vt 0.489138 0.070906
vt 0.519085 0.071822
vt 0.517478 0.110147
vt 0.432465 0.032176
vt 0.432528 0.000259
vt 0.459379 0.000869
vt 0.458956 0.032575
vt 0.489893 0.033085
vt 0.490179 0.001514
vt 0.521332 0.002534
vt 0.520526 0.033941
vt 0.596274 0.117007
vt 0.597395 0.077965
vt 0.625292 0.081792
vt 0.623594 0.120940
vt 0.652052 0.125203
vt 0.654931 0.086050
vt 0.684338 0.090133
vt 0.680288 0.129454
vt 0.598270 0.039858
vt 0.599095 0.008502
vt 0.628925 0.011595
vt 0.627281 0.043374
vt 0.657773 0.047242
vt 0.659996 0.014971
vt 0.690548 0.018581
vt 0.687920 0.051060
vt 0.922888 0.166886
vt 0.928903 0.125979
vt 0.957663 0.130976
vt 0.951602 0.171944
vt 0.023286 0.177199
vt 0.014478 0.136565
vt 0.044660 0.130478
vt 0.052564 0.170985
vt 0.934413 0.085583
vt 0.938705 0.052606
vt 0.968544 0.056424
vt 0.963679 0.090258
vt 0.006435 0.095884
vt 0.000042 0.062115
vt 0.030153 0.056947
vt 0.036786 0.090332
vt 0.994964 0.095349
vt 0.988444 0.136291
vt 0.999958 0.061208
vt 0.981506 0.177199
vn -0.6529 -0.0033 -0.7575
vn -0.6515 0.0261 -0.7581
vn -0.4915 0.0309 -0.8703
vn -0.4915 0.0026 -0.8708
vn 0.4246 0.0315 -0.9048
vn 0.4168 0.0551 -0.9073
vn 0.5489 0.0449 -0.8347
vn 0.5599 0.0215 -0.8283
vn 0.9935 -0.0691 -0.0907
vn 0.9948 -0.0450 -0.0911
vn 0.9969 -0.0623 0.0484
vn 0.9955 -0.0808 0.0487
vn 0.7531 -0.0915 0.6514
vn 0.7468 -0.0798 0.6602
vn 0.6253 -0.0736 0.7769
vn 0.6312 -0.0860 0.7708
vn -0.4662 -0.0539 0.8830
vn -0.4662 -0.0409 0.8837
vn -0.6110 -0.0304 0.7910
vn -0.6124 -0.0428 0.7894
vn -0.9743 -0.0185 0.2245
vn -0.9740 -0.0006 0.2265
vn -0.9954 0.0034 0.0960
vn -0.9952 -0.0188 0.0960
vn -0.9730 -0.0762 0.2177
vn -0.9735 -0.0563 0.2214
vn -0.9935 -0.0626 0.0949
vn -0.9922 -0.0845 0.0917
vn -0.4543 -0.0939 0.8859
vn -0.4578 -0.0805 0.8853
vn -0.6081 -0.0690 0.7908
vn -0.6084 -0.0824 0.7893
vn 0.7687 -0.1251 0.6272
vn 0.7623 -0.1140 0.6370
vn 0.6422 -0.1090 0.7587
vn 0.6491 -0.1196 0.7512
vn 0.9872 -0.1336 -0.0875
vn 0.9899 -0.1137 -0.0849
vn 0.9917 -0.1172 0.0522
vn 0.9897 -0.1345 0.0487
vn 0.4422 -0.0434 -0.8958
vn 0.4372 -0.0178 -0.8991
vn 0.5828 -0.0302 -0.8120
vn 0.5949 -0.0593 -0.8016
vn -0.6676 -0.0882 -0.7392
vn -0.6617 -0.0604 -0.7473
vn -0.4993 -0.0484 -0.8651
vn -0.5054 -0.0714 -0.8599
vn -0.9946 -0.0920 -0.0471
vn -0.9967 -0.0684 -0.0424
vn -0.9772 -0.0728 -0.1994
vn -0.9741 -0.0976 -0.2040
vn -0.9150 -0.1001 -0.3907
vn -0.9173 -0.0743 -0.3911
vn -0.8070 -0.0701 -0.5864
vn -0.8088 -0.0979 -0.5798
vn 0.7221 -0.0799 -0.6872
vn 0.7102 -0.0497 -0.7022
vn 0.8238 -0.0723 -0.5622
vn 0.8308 -0.1001 -0.5474
vn 0.9130 -0.1172 -0.3907
vn 0.9115 -0.0930 -0.4005
vn 0.9651 -0.1067 -0.2391
vn 0.9630 -0.1290 -0.2365
vn 0.6872 0.0064 -0.7264
vn 0.6783 0.0320 -0.7341
vn 0.8035 0.0163 -0.5950
vn 0.8085 -0.0138 -0.5883
vn 0.9050 -0.0358 -0.4239
vn 0.9028 -0.0034 -0.4300
vn 0.9662 -0.0247 -0.2563
vn 0.9658 -0.0543 -0.2534
vn -0.9990 -0.0184 -0.0399
vn -0.9991 0.0083 -0.0412
vn -0.9800 0.0130 -0.1983
vn -0.9802 -0.0176 -0.1971
vn -0.9190 -0.0155 -0.3939
vn -0.9181 0.0175 -0.3958
vn -0.8007 0.0219 -0.5987
vn -0.8028 -0.0101 -0.5961
vn 0.9763 -0.1351 0.1691
vn 0.9778 -0.1203 0.1718
vn 0.9498 -0.1222 0.2881
vn 0.9489 -0.1353 0.2850
vn 0.9073 -0.1339 0.3986
vn 0.9068 -0.1221 0.4034
vn 0.8489 -0.1196 0.5148
vn 0.8521 -0.1310 0.5067
vn 0.9814 -0.0902 0.1697
vn 0.9826 -0.0753 0.1694
vn 0.9532 -0.0843 0.2902
vn 0.9525 -0.0967 0.2888
vn 0.9078 -0.0993 0.4074
vn 0.9078 -0.0882 0.4100
vn 0.8431 -0.0855 0.5308
vn 0.8456 -0.0969 0.5250
vn 0.4901 -0.1178 0.8636
vn 0.4854 -0.1070 0.8677
vn 0.2629 -0.1060 0.9590
vn 0.2631 -0.1168 0.9577
vn -0.0043 -0.1136 0.9935
vn -0.0076 -0.1027 0.9947
vn -0.2602 -0.0927 0.9611
vn -0.2529 -0.1053 0.9617
vn 0.4742 -0.0813 0.8766
vn 0.4686 -0.0662 0.8809
vn 0.2562 -0.0611 0.9647
vn 0.2583 -0.0782 0.9629
vn -0.0140 -0.0748 0.9971
vn -0.0141 -0.0578 0.9982
vn -0.2763 -0.0506 0.9597
vn -0.2729 -0.0653 0.9598
vn -0.7263 -0.0722 0.6836
vn -0.7241 -0.0591 0.6871
vn -0.8157 -0.0522 0.5761
vn -0.8175 -0.0656 0.5722
vn -0.8879 -0.0643 0.4555
vn -0.8869 -0.0490 0.4594
vn -0.9387 -0.0510 0.3408
vn -0.9391 -0.0688 0.3366
vn -0.7259 -0.0331 0.6870
vn -0.7242 -0.0205 0.6892
vn -0.8170 -0.0120 0.5764
vn -0.8176 -0.0253 0.5752
vn -0.8878 -0.0203 0.4597
vn -0.8875 -0.0067 0.4608
vn -0.9380 -0.0036 0.3464
vn -0.9388 -0.0184 0.3440
vn -0.3264 -0.0572 -0.9435
vn -0.3227 -0.0361 -0.9458
vn -0.1316 -0.0242 -0.9910
vn -0.1346 -0.0482 -0.9897
vn 0.0662 -0.0411 -0.9969
vn 0.0686 -0.0153 -0.9975
vn 0.2653 -0.0127 -0.9640
vn 0.2648 -0.0376 -0.9636
vn -0.3145 0.0109 -0.9492
vn -0.3113 0.0369 -0.9496
vn -0.1166 0.0434 -0.9922
vn -0.1218 0.0216 -0.9923
vn 0.0749 0.0308 -0.9967
vn 0.0773 0.0509 -0.9957
vn 0.2610 0.0571 -0.9636
vn 0.2635 0.0346 -0.9640
s 1
f 125/1/1 38/2/2 2/3/3 44/4/4
f 124/5/5 39/6/6 3/7/7 46/8/8
f 123/9/9 40/10/10 4/11/11 48/12/12
f 122/13/13 41/14/14 5/15/15 50/16/16
f 121/17/17 42/18/18 6/19/19 52/20/20
f 120/21/21 43/22/22 1/23/23 37/24/24
f 144/25/25 54/26/26 7/27/27 138/28/28
f 143/29/29 55/30/30 12/31/31 53/32/32
f 142/33/33 56/34/34 11/35/35 51/36/36
f 141/37/37 57/38/38 10/39/39 49/40/40
f 140/41/41 58/42/42 9/43/43 47/44/44
f 139/45/45 59/46/46 8/47/47 45/48/48
f 137/49/49 66/50/50 19/51/51 68/52/52
f 136/53/53 67/54/54 20/55/55 69/56/56
f 135/57/57 64/58/58 17/59/59 70/60/60
f 134/61/61 65/62/62 18/63/63 71/64/64
f 119/65/65 62/66/66 15/67/67 72/68/68
f 118/69/69 63/70/70 16/71/71 73/72/72
f 117/73/73 60/74/74 13/75/75 74/76/76
f 116/77/77 61/78/78 14/79/79 75/80/80
f 133/81/81 78/82/82 23/83/83 80/84/84
f 132/85/85 79/86/86 24/87/87 81/88/88
f 115/89/89 76/90/90 21/91/91 82/92/92
f 114/93/93 77/94/94 22/95/95 83/96/96
f 131/97/97 86/98/98 27/99/99 88/100/100
f 130/101/101 87/102/102 28/103/103 89/104/104
f 113/105/105 84/106/106 25/107/107 90/108/108
f 112/109/109 85/110/110 26/111/111 91/112/112
f 129/113/113 94/114/114 31/115/115 96/116/116
f 128/117/117 95/118/118 32/119/119 97/120/120
f 111/121/121 92/122/122 29/123/123 98/124/124
f 110/125/125 93/126/126 30/127/127 99/128/128
f 127/129/129 102/130/130 35/131/131 104/132/132
f 126/133/133 103/134/134 36/135/135 105/136/136
f 109/137/137 100/138/138 33/139/139 106/140/140
f 108/141/141 101/142/142 34/143/143 107/144/144
f 103/134/134 108/141/141 107/144/144 36/135/135
f 35/131/131 106/140/140 108/145/141 103/146/134
f 106/140/140 33/139/139 101/147/142 108/145/141
f 102/130/130 109/137/137 106/140/140 35/131/131
f 8/47/47 44/4/4 109/137/137 102/130/130
f 44/4/4 2/3/3 100/138/138 109/137/137
f 104/132/132 35/131/131 103/146/134 126/148/133
f 45/48/48 8/47/47 102/130/130 127/129/129
f 95/118/118 110/125/125 99/128/128 32/119/119
f 31/115/115 98/124/124 110/125/125 95/118/118
f 98/124/124 29/123/123 93/126/126 110/125/125
f 94/114/114 111/121/121 98/124/124 31/115/115
f 12/31/31 52/20/20 111/121/121 94/114/114
f 52/20/20 6/19/19 92/122/122 111/121/121
f 96/116/116 31/115/115 95/118/118 128/117/117
f 53/32/32 12/31/31 94/114/114 129/113/113
f 87/102/102 112/109/109 91/112/112 28/103/103
f 27/99/99 90/108/108 112/109/109 87/102/102
f 90/108/108 25/107/107 85/110/110 112/109/109
f 86/98/98 113/105/105 90/108/108 27/99/99
f 11/35/35 50/16/16 113/105/105 86/98/98
f 50/16/16 5/15/15 84/106/106 113/105/105
f 88/100/100 27/99/99 87/102/102 130/101/101
f 51/36/36 11/35/35 86/98/98 131/97/97
f 79/86/86 114/93/93 83/96/96 24/87/87
f 23/83/83 82/92/92 114/93/93 79/86/86
f 82/92/92 21/91/91 77/94/94 114/93/93
f 78/82/82 115/89/89 82/92/92 23/83/83
f 10/39/39 48/12/12 115/89/89 78/82/82
f 48/12/12 4/11/11 76/90/90 115/89/89
f 80/84/84 23/83/83 79/86/86 132/85/85
f 49/40/40 10/39/39 78/82/82 133/81/81
f 67/54/54 116/77/77 75/80/80 20/55/55
f 19/51/51 74/76/76 116/77/77 67/54/54
f 74/76/76 13/75/75 61/78/78 116/77/77
f 66/50/50 117/73/73 74/76/76 19/51/51
f 7/27/27 37/24/24 117/73/73 66/50/50
f 37/24/24 1/23/23 60/74/74 117/73/73
f 65/62/62 118/69/69 73/72/72 18/63/63
f 17/59/59 72/68/68 118/69/69 65/62/62
f 72/68/68 15/67/67 63/70/70 118/69/69
f 64/58/58 119/65/65 72/68/68 17/59/59
f 9/43/43 46/8/8 119/65/65 64/58/58
f 46/8/8 3/7/7 62/66/66 119/65/65
f 70/60/60 17/59/59 65/62/62 134/61/61
f 47/44/44 9/43/43 64/58/58 135/57/57
f 68/52/52 19/51/51 67/54/54 136/53/53
f 138/28/28 7/27/27 66/50/50 137/49/49
f 69/56/56 20/55/55 59/46/46 139/45/45
f 105/136/136 36/135/135 58/42/42 140/41/41
f 71/64/64 18/63/63 57/38/38 141/37/37
f 81/88/88 24/87/87 56/34/34 142/33/33
f 89/104/104 28/103/103 55/30/30 143/29/29
f 97/120/120 32/119/119 54/26/26 144/25/25
f 54/26/26 120/21/21 37/24/24 7/27/27
f 32/119/119 99/128/128 120/21/21 54/26/26
f 99/128/128 30/127/127 43/22/22 120/21/21
f 55/30/30 121/17/17 52/20/20 12/31/31
f 28/103/103 91/112/112 121/17/17 55/30/30
f 91/112/112 26/111/111 42/18/18 121/17/17
f 56/34/34 122/13/13 50/16/16 11/35/35
f 24/87/87 83/96/96 122/13/13 56/34/34
f 83/96/96 22/95/95 41/14/14 122/13/13
f 57/38/38 123/9/9 48/12/12 10/39/39
f 18/63/63 73/72/72 123/9/9 57/38/38
f 73/72/72 16/71/71 40/10/10 123/9/9
f 58/42/42 124/5/5 46/8/8 9/43/43
f 36/135/135 107/144/144 124/5/5 58/42/42
f 107/144/144 34/143/143 39/6/6 124/5/5
f 59/46/46 125/1/1 44/4/4 8/47/47
f 20/55/55 75/80/80 125/1/1 59/46/46
f 75/80/80 14/79/79 38/2/2 125/1/1
