# Blender v2.79 (sub 0) OBJ File: 'sockexplodedretopo_half.blend'
# www.blender.org
o body.004_Cylinder.007
v -3.506907 5.009202 -2.186852
v -3.847875 5.027552 -2.190622
v -4.066596 5.058187 -1.899960
v -4.082256 5.041764 -1.507954
v -3.908611 5.018789 -1.241051
v -3.615328 5.016656 -1.181615
v -3.384583 5.023669 -1.400565
v -3.291849 5.017625 -1.873777
v -3.297884 5.020360 -1.632984
v -3.772637 5.015090 -1.176218
v -3.360667 5.011530 -2.041562
v -3.682614 5.015019 -2.234810
v -3.838712 5.015907 -1.198309
v -3.694462 5.015452 -1.168054
v -3.480621 5.019768 -1.263116
v -4.012857 5.028541 -1.352545
v -3.332448 5.022396 -1.521552
v -4.102915 5.050909 -1.711978
v -3.281597 5.018784 -1.750493
v -3.982648 5.043109 -2.068589
v -3.514165 4.840910 -2.175185
v -4.052319 4.888592 -1.893539
v -3.898592 4.841224 -1.245739
v -3.399837 4.859516 -1.395970
v -3.313443 4.858644 -1.631745
v -3.767263 4.840122 -1.185540
v -3.367850 4.846853 -2.031751
v -3.839460 4.857541 -2.175915
v -4.070755 4.868310 -1.505986
v -3.617553 4.843544 -1.190544
v -3.304086 4.855279 -1.877065
v -3.681411 4.845786 -2.220241
v -3.831260 4.839803 -1.205776
v -3.691774 4.840879 -1.178259
v -3.490360 4.852262 -1.265968
v -4.001470 4.853627 -1.353870
v -3.348289 4.859556 -1.518698
v -4.088679 4.880250 -1.710649
v -3.294882 4.856572 -1.749841
v -3.967051 4.873681 -2.058384
v -3.369761 4.659690 -2.030697
v -3.313185 4.669112 -1.879266
v -3.360988 4.672964 -1.508077
v -3.409049 4.671314 -1.381514
v -3.828305 4.635845 -1.203778
v -3.894928 4.635683 -1.241953
v -3.997649 4.653139 -1.350416
v -4.062768 4.671614 -1.501161
v -4.077959 4.686334 -1.706435
v -4.039834 4.696328 -1.889567
v -3.956724 4.682225 -2.051082
v -3.833345 4.665200 -2.173223
v -3.679085 4.655663 -2.220751
v -3.512852 4.649474 -2.177668
v -3.495586 4.658657 -1.258529
v -3.615629 4.642668 -1.189003
v -3.306275 4.671242 -1.752165
v -3.327011 4.673084 -1.628253
v -3.690036 4.639465 -1.177451
v -3.764552 4.637832 -1.184382
v -3.512191 5.023602 -2.168825
v -4.054578 5.070994 -1.891271
v -3.901505 5.033257 -1.253949
v -3.393870 5.037157 -1.408522
v -3.310156 5.033876 -1.632695
v -3.769789 5.029520 -1.190966
v -3.370779 5.025567 -2.027958
v -3.682441 5.029324 -2.215441
v -3.833779 5.030375 -1.212451
v -3.694035 5.029853 -1.183091
v -4.002349 5.042599 -1.361959
v -3.486759 5.033669 -1.275456
v -4.089513 5.064044 -1.709525
v -3.343431 5.035848 -1.525335
v -3.973259 5.056304 -2.054432
v -3.294470 5.032361 -1.746227
v -3.842628 5.041398 -2.172764
v -4.069635 5.055295 -1.512266
v -3.617206 5.030987 -1.196256
v -3.304371 5.031240 -1.865322
v -3.517390 5.007552 -2.151869
v -4.042702 5.053452 -1.883052
v -3.894447 5.016902 -1.265795
v -3.402794 5.020680 -1.415503
v -3.321715 5.017503 -1.632617
v -3.766878 5.013284 -1.204796
v -3.380430 5.009455 -2.015437
v -3.682280 5.013094 -2.197018
v -3.828854 5.014112 -1.225604
v -3.693509 5.013607 -1.197168
v -3.992117 5.025951 -1.370405
v -3.492759 5.017302 -1.286625
v -4.076537 5.046721 -1.707029
v -3.353944 5.019412 -1.528637
v -3.963943 5.039225 -2.041077
v -3.306524 5.016036 -1.742575
v -3.837425 5.024788 -2.155684
v -4.057284 5.038247 -1.515980
v -3.619099 5.014704 -1.209919
v -3.316113 5.014949 -1.857921
vt 0.069922 0.132615
vt 0.013659 0.128958
vt 0.013659 0.064094
vt 0.066537 0.064094
vt 0.303217 0.140368
vt 0.241595 0.141619
vt 0.240322 0.064094
vt 0.304028 0.064094
vt 0.507269 0.136994
vt 0.474261 0.135787
vt 0.485851 0.064094
vt 0.513580 0.064094
vt 0.742321 0.140562
vt 0.696773 0.140380
vt 0.695848 0.064094
vt 0.742118 0.064094
vt 0.181217 0.137841
vt 0.124252 0.134994
vt 0.118595 0.064094
vt 0.177270 0.064094
vt 0.424101 0.137746
vt 0.368434 0.139258
vt 0.374935 0.064094
vt 0.433043 0.064094
vt 0.928030 0.135002
vt 0.873805 0.139120
vt 0.868066 0.064094
vt 0.925939 0.064094
vt 0.646771 0.137721
vt 0.598866 0.135736
vt 0.589986 0.064094
vt 0.641371 0.064094
vt 0.828248 0.139347
vt 0.785003 0.139846
vt 0.783271 0.064094
vt 0.825412 0.064094
vt 0.567361 0.136544
vt 0.536232 0.136876
vt 0.537335 0.064094
vt 0.563675 0.064094
vt 0.992303 0.128958
vt 0.992303 0.064094
vt 0.992303 0.214279
vt 0.928969 0.223914
vt 0.929916 0.204492
vt 0.992303 0.191672
vt 0.565485 0.220692
vt 0.536884 0.221670
vt 0.536637 0.202910
vt 0.565843 0.202369
vt 0.826901 0.224057
vt 0.784143 0.224686
vt 0.785023 0.207870
vt 0.828577 0.207015
vt 0.642321 0.225811
vt 0.595112 0.221069
vt 0.596246 0.203164
vt 0.643143 0.208036
vt 0.871015 0.224331
vt 0.873220 0.207079
vt 0.430342 0.225856
vt 0.372556 0.225796
vt 0.372111 0.209519
vt 0.428944 0.208176
vt 0.177946 0.224013
vt 0.120329 0.221907
vt 0.120839 0.202796
vt 0.177358 0.206546
vt 0.741886 0.225493
vt 0.695509 0.226320
vt 0.695038 0.210204
vt 0.741792 0.209233
vt 0.509946 0.220854
vt 0.479279 0.221720
vt 0.477563 0.203863
vt 0.509166 0.202895
vt 0.303691 0.225046
vt 0.239808 0.225243
vt 0.238811 0.209177
vt 0.303381 0.209017
vt 0.067741 0.219203
vt 0.013659 0.214279
vt 0.013659 0.191672
vt 0.069062 0.198223
vt 0.240322 0.242872
vt 0.177270 0.242872
vt 0.641371 0.242872
vt 0.589986 0.242872
vt 0.066537 0.242872
vt 0.013659 0.242872
vt 0.783271 0.242872
vt 0.742118 0.242872
vt 0.825412 0.242872
vt 0.304028 0.242872
vt 0.374935 0.242872
vt 0.563675 0.242872
vt 0.537335 0.242872
vt 0.513580 0.242872
vt 0.485851 0.242872
vt 0.695848 0.242872
vt 0.992303 0.242872
vt 0.925939 0.242872
vt 0.433043 0.242872
vt 0.118595 0.242872
vt 0.868066 0.242872
vn -0.0104 -0.0443 -0.9989
vn 0.4982 -0.0367 -0.8662
vn 0.4982 0.0060 -0.8670
vn -0.0034 -0.0004 -1.0000
vn -0.9959 -0.0681 -0.0586
vn -0.9421 -0.0803 -0.3255
vn -0.9412 -0.0652 -0.3315
vn -0.9969 -0.0545 -0.0558
vn -0.4092 -0.0261 0.9121
vn -0.6250 -0.0267 0.7801
vn -0.6147 0.0016 0.7887
vn -0.4026 0.0037 0.9153
vn 0.9400 -0.0637 0.3350
vn 0.8773 -0.0422 0.4781
vn 0.8749 -0.0125 0.4841
vn 0.9432 -0.0425 0.3294
vn -0.7993 -0.0808 -0.5954
vn -0.4964 -0.0654 -0.8656
vn -0.4892 -0.0298 -0.8717
vn -0.7967 -0.0576 -0.6017
vn -0.8324 -0.0345 0.5531
vn -0.9676 -0.0505 0.2473
vn -0.9658 -0.0317 0.2571
vn -0.8237 -0.0093 0.5669
vn 0.8347 -0.0419 -0.5492
vn 0.9731 -0.0562 -0.2236
vn 0.9743 -0.0402 -0.2216
vn 0.8332 -0.0121 -0.5528
vn 0.6813 -0.0231 0.7317
vn 0.3422 -0.0199 0.9394
vn 0.3287 0.0113 0.9443
vn 0.6628 0.0095 0.7487
vn 0.9965 -0.0716 0.0432
vn 0.9721 -0.0747 0.2220
vn 0.9728 -0.0613 0.2233
vn 0.9970 -0.0603 0.0478
vn 0.0335 -0.0252 0.9991
vn -0.2008 -0.0270 0.9792
vn -0.1971 0.0035 0.9803
vn 0.0302 0.0055 0.9995
vn 0.0662 0.9969 -0.0429
vn 0.0372 0.9992 -0.0157
vn 0.7642 0.3617 -0.5340
vn 0.4602 0.3702 -0.8069
vn -0.0050 0.9998 0.0167
vn 0.0020 1.0000 0.0066
vn -0.1937 0.3541 0.9149
vn 0.0260 0.3532 0.9351
vn -0.0060 0.9999 0.0071
vn -0.0178 0.9998 -0.0097
vn 0.9303 0.3069 0.2008
vn 0.9464 0.3224 0.0202
vn 0.0360 0.9990 0.0270
vn 0.0160 0.9993 0.0343
vn 0.3147 0.3472 0.8834
vn 0.6351 0.3305 0.6981
vn 0.0122 0.9999 0.0016
vn 0.9077 0.3497 -0.2316
vn 0.0164 0.9979 0.0623
vn 0.0053 0.9984 0.0569
vn -0.9038 0.3399 0.2599
vn -0.7691 0.3401 0.5411
vn 0.0329 0.9984 -0.0452
vn 0.0355 0.9976 -0.0591
vn -0.4165 0.3789 -0.8264
vn -0.7174 0.3695 -0.5905
vn -0.0278 0.9993 -0.0241
vn -0.0088 0.9999 -0.0090
vn 0.8275 0.3176 0.4629
vn 0.8952 0.3065 0.3233
vn 0.0151 0.9998 0.0150
vn 0.0222 0.9991 0.0363
vn -0.5766 0.3457 0.7403
vn -0.3835 0.3516 0.8540
vn 0.0000 0.9987 0.0511
vn 0.0203 0.9998 0.0065
vn -0.8737 0.3685 -0.3175
vn -0.9407 0.3374 -0.0356
vn 0.0548 0.9965 -0.0624
vn 0.0155 0.3782 -0.9256
vn 0.7518 0.6174 0.2315
vn 0.6395 0.6587 0.3963
vn -0.5705 0.5953 -0.5658
vn -0.2928 0.6344 -0.7154
vn 0.0319 0.7501 0.6605
vn -0.3569 0.7306 0.5820
vn -0.8020 0.5653 -0.1928
vn -0.7766 0.5561 -0.2958
vn -0.8081 0.5877 -0.0399
vn 0.7958 0.6034 0.0510
vn 0.7795 0.6022 -0.1721
vn -0.0341 0.6538 -0.7559
vn 0.1627 0.6565 -0.7365
vn 0.3372 0.6516 -0.6794
vn 0.5148 0.6374 -0.5732
vn -0.7264 0.5614 -0.3964
vn -0.6352 0.6738 0.3775
vn 0.6785 0.6182 -0.3966
vn 0.3929 0.7162 0.5768
vn -0.7668 0.6229 0.1546
s 1
f 32/1/1 21/2/2 54/3/3 53/4/4
f 38/5/5 22/6/6 50/7/7 49/8/8
f 33/9/9 23/10/10 46/11/11 45/12/12
f 37/13/13 24/14/14 44/15/15 43/16/16
f 40/17/17 28/18/18 52/19/19 51/20/20
f 36/21/21 29/22/22 48/23/23 47/24/24
f 27/25/25 31/26/26 42/27/27 41/28/28
f 35/29/29 30/30/30 56/31/31 55/32/32
f 39/33/33 25/34/34 58/35/35 57/36/36
f 34/37/37 26/38/38 60/39/39 59/40/40
f 21/41/2 27/25/25 41/28/28 54/42/3
f 61/43/41 67/44/42 11/45/43 1/46/44
f 70/47/45 66/48/46 10/49/47 14/50/48
f 76/51/49 65/52/50 9/53/51 19/54/52
f 72/55/53 79/56/54 6/57/55 15/58/56
f 67/44/42 80/59/57 8/60/58 11/45/43
f 71/61/59 78/62/60 4/63/61 16/64/62
f 75/65/63 77/66/64 2/67/65 20/68/66
f 74/69/67 64/70/68 7/71/69 17/72/70
f 69/73/71 63/74/72 5/75/73 13/76/74
f 73/77/75 62/78/76 3/79/77 18/80/78
f 68/81/79 61/82/41 1/83/44 12/84/80
f 77/66/64 68/81/79 12/84/80 2/67/65
f 28/18/18 32/1/1 53/4/4 52/19/19
f 66/48/46 69/73/71 13/76/74 10/49/47
f 26/38/38 33/9/9 45/12/12 60/39/39
f 79/56/54 70/47/45 14/50/48 6/57/55
f 30/30/30 34/37/37 59/40/40 56/31/31
f 63/74/72 71/61/59 16/64/62 5/75/73
f 64/70/68 72/55/53 15/58/56 7/71/69
f 24/14/14 35/29/29 55/32/32 44/15/15
f 23/10/10 36/21/21 47/24/24 46/11/11
f 78/62/60 73/77/75 18/80/78 4/63/61
f 65/52/50 74/69/67 17/72/70 9/53/51
f 25/34/34 37/13/13 43/16/16 58/35/35
f 29/22/22 38/5/5 49/8/8 48/23/23
f 62/78/76 75/65/63 20/68/66 3/79/77
f 80/59/57 76/51/49 19/54/52 8/60/58
f 31/26/26 39/33/33 57/36/36 42/27/27
f 22/6/6 40/17/17 51/20/20 50/7/7
f 3/79/77 20/68/66 40/17/17 22/6/6
f 8/60/58 19/54/52 39/33/33 31/26/26
f 4/63/61 18/80/78 38/5/5 29/22/22
f 9/53/51 17/72/70 37/13/13 25/34/34
f 5/75/73 16/64/62 36/21/21 23/10/10
f 7/71/69 15/58/56 35/29/29 24/14/14
f 6/57/55 14/50/48 34/37/37 30/30/30
f 10/49/47 13/76/74 33/9/9 26/38/38
f 2/67/65 12/84/80 32/1/1 28/18/18
f 1/46/44 11/45/43 27/25/25 21/41/2
f 14/50/48 10/49/47 26/38/38 34/37/37
f 19/54/52 9/53/51 25/34/34 39/33/33
f 15/58/56 6/57/55 30/30/30 35/29/29
f 11/45/43 8/60/58 31/26/26 27/25/25
f 16/64/62 4/63/61 29/22/22 36/21/21
f 20/68/66 2/67/65 28/18/18 40/17/17
f 17/72/70 7/71/69 24/14/14 37/13/13
f 13/76/74 5/75/73 23/10/10 33/9/9
f 18/80/78 3/79/77 22/6/6 38/5/5
f 12/84/80 1/83/44 21/2/2 32/1/1
f 75/65/63 62/78/76 82/85/81 95/86/82
f 79/56/54 72/55/53 92/87/83 99/88/84
f 61/82/41 68/81/79 88/89/85 81/90/86
f 74/69/67 65/52/50 85/91/87 94/92/88
f 65/52/50 76/51/49 96/93/89 85/91/87
f 62/78/76 73/77/75 93/94/90 82/85/81
f 73/77/75 78/62/60 98/95/91 93/94/90
f 66/48/46 70/47/45 90/96/92 86/97/93
f 63/74/72 69/73/71 89/98/94 83/99/95
f 72/55/53 64/70/68 84/100/96 92/87/83
f 67/44/42 61/43/41 81/101/86 87/102/97
f 64/70/68 74/69/67 94/92/88 84/100/96
f 71/61/59 63/74/72 83/99/95 91/103/98
f 77/66/64 75/65/63 95/86/82 97/104/99
f 70/47/45 79/56/54 99/88/84 90/96/92
f 78/62/60 71/61/59 91/103/98 98/95/91
f 69/73/71 66/48/46 86/97/93 89/98/94
f 76/51/49 80/59/57 100/105/100 96/93/89
f 80/59/57 67/44/42 87/102/97 100/105/100
f 68/81/79 77/66/64 97/104/99 88/89/85
