# Blender v2.79 (sub 0) OBJ File: 'sockexplodedretopo.blend'
# www.blender.org
o toe_Cylinder.000
v -3.480719 3.287030 0.607053
v -4.083010 3.271807 0.480339
v -3.298095 3.202280 0.669129
v -3.339965 3.005844 0.701819
v -4.230400 3.203921 0.435334
v -4.300074 3.107841 0.416258
v -3.552647 2.935507 0.680612
v -4.146544 2.941663 0.502791
v -3.831259 2.929040 0.599587
v -3.798106 3.310485 0.544899
v -3.666597 3.127063 0.887748
v -3.969120 3.113716 0.788543
v -3.567819 3.091437 0.896252
v -3.606979 3.023684 0.881472
v -4.032845 3.098675 0.750807
v -4.077080 3.065668 0.722714
v -3.691637 2.992483 0.854376
v -4.011973 3.011056 0.759370
v -3.854807 2.993340 0.828134
v -3.834458 3.135793 0.844007
v -3.853959 2.954921 0.754158
v -4.199063 3.081983 0.596596
v -4.105999 2.982231 0.657125
v -3.484045 3.010375 0.839926
v -3.400969 3.149090 0.818609
v -3.545720 3.210354 0.799834
v -3.822889 3.215588 0.742815
v -4.043973 3.173513 0.677028
v -4.134934 3.140068 0.634270
v -3.611714 2.959766 0.790509
v -3.412399 2.971319 0.709414
v -4.275748 3.048842 0.476423
v -3.623608 3.005560 0.873013
v -4.058809 3.045173 0.736001
v -4.150411 3.046137 0.651025
v -3.531230 2.994433 0.840030
v -3.288102 3.065573 0.693339
v -4.288618 3.149679 0.405550
v -3.585556 3.048610 0.892615
v -4.075869 3.072855 0.723418
v -3.440740 3.041637 0.841652
v -4.187889 3.107732 0.600608
v -3.669606 2.930887 0.646476
v -3.752695 2.991917 0.849212
v -3.713094 2.954638 0.775230
v -4.000714 2.929736 0.542171
v -3.940533 2.996032 0.789039
v -3.993851 2.960222 0.703696
v -4.265332 3.176887 0.417673
v -3.479615 2.949162 0.707964
v -4.059724 3.087914 0.732565
v -3.644368 3.004183 0.870890
v -4.167204 3.124061 0.613783
v -3.568096 2.975972 0.823034
v -4.238059 2.985826 0.499696
v -4.044048 3.029627 0.743942
v -4.136964 3.020150 0.659195
v -3.271209 3.134992 0.682734
v -3.563564 3.064372 0.891924
v -3.397047 3.094455 0.829556
v -3.374345 3.252851 0.641646
v -4.171789 3.238081 0.455884
v -3.611197 3.115986 0.893415
v -4.005980 3.105341 0.768133
v -3.456874 3.185980 0.816877
v -4.095993 3.155672 0.655131
v -3.948474 3.298307 0.513569
v -3.906641 3.124634 0.818872
v -3.937387 3.199412 0.713226
v -3.632605 3.306118 0.576304
v -3.752902 3.135580 0.867843
v -3.683289 3.220521 0.774395
v -3.845606 3.042802 0.857970
vt 0.281512 0.343521
vt 0.244866 0.329613
vt 0.365998 0.286400
vt 0.390544 0.290789
vt 0.419658 0.387768
vt 0.327845 0.360884
vt 0.422459 0.296001
vt 0.473848 0.301519
vt 0.631213 0.397455
vt 0.516881 0.402943
vt 0.528618 0.306110
vt 0.587437 0.303718
vt 0.831639 0.264218
vt 0.834915 0.305040
vt 0.709743 0.268438
vt 0.712226 0.249992
vt 0.254704 0.225580
vt 0.273066 0.188809
vt 0.381411 0.218356
vt 0.354251 0.233261
vt 0.370096 0.157594
vt 0.490103 0.143528
vt 0.508459 0.203389
vt 0.439770 0.205280
vt 0.192261 0.302575
vt 0.182325 0.280858
vt 0.324710 0.261681
vt 0.325954 0.267302
vt 0.601826 0.133952
vt 0.681024 0.142476
vt 0.624579 0.198001
vt 0.581363 0.199913
vt 0.736623 0.192514
vt 0.769740 0.204983
vt 0.683713 0.221852
vt 0.672830 0.209097
vt 0.797468 0.337992
vt 0.735946 0.372286
vt 0.645836 0.295395
vt 0.682303 0.286301
vt 0.988289 0.367780
vt 0.935754 0.457323
vt 0.196095 0.509918
vt 0.116364 0.459449
vt 0.841070 0.544766
vt 0.859769 0.125284
vt 0.923765 0.162025
vt 0.630634 0.014730
vt 0.743480 0.054558
vt 0.002119 0.366461
vt 0.000078 0.323751
vt 0.277971 0.037787
vt 0.461760 0.000078
vt 0.089993 0.196821
vt 0.145712 0.116469
vt 0.999922 0.290350
vt 0.674496 0.606949
vt 0.486709 0.606949
vt 0.326876 0.568656
vt 0.062581 0.419416
vt 0.055396 0.259663
vt 0.242309 0.247774
vt 0.804078 0.097196
vt 0.711495 0.171484
vt 0.658431 0.208406
vt 0.341649 0.245485
vt 0.975086 0.219443
vt 0.798949 0.228735
vt 0.026881 0.392341
vt 0.212977 0.316202
vt 0.340637 0.278754
vt 0.697705 0.239441
vt 0.521965 0.240311
vn -0.5114 0.6367 0.5771
vn -0.6009 0.5391 0.5901
vn -0.5749 0.1964 0.7942
vn -0.5394 0.2567 0.8019
vn -0.2996 0.7954 0.5267
vn -0.4127 0.7218 0.5557
vn -0.4753 0.3689 0.7987
vn -0.3942 0.4493 0.8017
vn -0.0703 0.8552 0.5135
vn -0.1826 0.8428 0.5062
vn -0.2811 0.5159 0.8092
vn -0.1903 0.4934 0.8488
vn 0.6055 -0.0174 0.7956
vn 0.4921 0.4571 0.7408
vn 0.1524 0.1448 0.9776
vn 0.2063 -0.0617 0.9765
vn -0.6569 -0.4274 0.6211
vn -0.4298 -0.7752 0.4629
vn -0.4746 -0.4625 0.7489
vn -0.5635 -0.2437 0.7893
vn -0.2395 -0.8952 0.3757
vn -0.1102 -0.9395 0.3243
vn -0.2363 -0.6883 0.6858
vn -0.3492 -0.6414 0.6831
vn -0.7449 0.3276 0.5812
vn -0.8073 0.1296 0.5756
vn -0.6399 0.0658 0.7656
vn -0.6204 0.1485 0.7700
vn -0.0328 -0.9501 0.3101
vn 0.0265 -0.9411 0.3369
vn -0.0768 -0.7510 0.6558
vn -0.0842 -0.6610 0.7456
vn 0.2382 -0.7541 0.6120
vn 0.3596 -0.6522 0.6673
vn 0.0554 -0.4451 0.8937
vn 0.0333 -0.6058 0.7949
vn 0.2347 0.7122 0.6615
vn 0.0526 0.8297 0.5557
vn -0.0905 0.3846 0.9186
vn 0.0058 0.3157 0.9488
vn 0.5645 0.5716 0.5955
vn 0.2766 0.8413 0.4644
vn -0.3858 0.7952 0.4678
vn -0.5097 0.7118 0.4833
vn 0.0884 0.9115 0.4017
vn 0.3417 -0.8328 0.4354
vn 0.5361 -0.6457 0.5437
vn -0.0160 -0.9832 0.1815
vn 0.0544 -0.9682 0.2441
vn -0.7793 0.3880 0.4921
vn -0.8265 0.2392 0.5096
vn -0.1562 -0.9638 0.2159
vn -0.0577 -0.9840 0.1685
vn -0.7157 -0.4594 0.5260
vn -0.3992 -0.8464 0.3524
vn 0.7425 0.0911 0.6636
vn -0.0324 0.9184 0.3943
vn -0.1404 0.8997 0.4133
vn -0.2600 0.8583 0.4423
vn -0.6174 0.6155 0.4898
vn -0.8331 -0.0754 0.5479
vn -0.7443 -0.1046 0.6596
vn 0.2049 -0.9104 0.3595
vn 0.1169 -0.8850 0.4507
vn -0.0461 -0.5538 0.8313
vn -0.5907 -0.0180 0.8066
vn 0.6964 -0.3528 0.6249
vn 0.5009 -0.3813 0.7769
vn -0.7104 0.5051 0.4901
vn -0.6753 0.4409 0.5912
vn -0.5914 0.2010 0.7808
vn 0.0584 -0.1393 0.9885
vn -0.3049 -0.1639 0.9381
s 1
f 66/1/1 29/2/2 15/3/3 64/4/4
f 69/5/5 28/6/6 12/7/7 68/8/8
f 72/9/9 27/10/10 20/11/11 71/12/12
f 60/13/13 25/14/14 13/15/15 59/16/16
f 57/17/17 23/18/18 18/19/19 56/20/20
f 48/21/21 21/22/22 19/23/23 47/24/24
f 42/25/25 22/26/26 16/27/27 40/28/28
f 45/29/29 30/30/30 17/31/31 44/32/32
f 36/33/33 24/34/34 14/35/35 33/36/36
f 65/37/37 26/38/38 11/39/39 63/40/40
f 25/14/14 65/37/37 63/40/40 13/15/15
f 3/41/41 61/42/42 65/37/37 25/14/14
f 2/43/43 62/44/44 66/1/1 28/6/6
f 61/42/42 1/45/45 26/38/38 65/37/37
f 31/46/46 4/47/47 24/34/34 36/33/33
f 43/48/48 7/49/49 30/30/30 45/29/29
f 38/50/50 6/51/51 22/26/26 42/25/25
f 46/52/52 9/53/53 21/22/22 48/21/21
f 55/54/54 8/55/55 23/18/18 57/17/17
f 58/56/56 3/41/41 25/14/14 60/13/13
f 70/57/57 10/58/58 27/10/10 72/9/9
f 67/59/59 2/43/43 28/6/6 69/5/5
f 62/44/44 5/60/60 29/2/2 66/1/1
f 6/51/51 32/61/61 35/62/62 22/26/26
f 50/63/63 31/46/46 36/33/33 54/64/64
f 54/64/64 36/33/33 33/36/36 52/65/65
f 22/26/26 35/62/62 34/66/66 16/27/27
f 4/47/47 37/67/67 41/68/68 24/34/34
f 49/69/69 38/50/50 42/25/25 53/70/70
f 53/70/70 42/25/25 40/28/28 51/71/71
f 24/34/34 41/68/68 39/72/72 14/35/35
f 9/53/53 43/48/48 45/29/29 21/22/22
f 21/22/22 45/29/29 44/32/32 19/23/23
f 8/55/55 46/52/52 48/21/21 23/18/18
f 23/18/18 48/21/21 47/24/24 18/19/19
f 29/2/2 53/70/70 51/71/71 15/3/3
f 5/60/60 49/69/69 53/70/70 29/2/2
f 30/30/30 54/64/64 52/65/65 17/31/31
f 7/49/49 50/63/63 54/64/64 30/30/30
f 37/67/67 58/56/56 60/13/13 41/68/68
f 32/61/61 55/54/54 57/17/17 35/62/62
f 28/6/6 66/1/1 64/4/4 12/7/7
f 35/62/62 57/17/17 56/20/20 34/66/66
f 41/68/68 60/13/13 59/16/16 39/72/72
f 10/58/58 67/59/59 69/5/5 27/10/10
f 27/10/10 69/5/5 68/8/8 20/11/11
f 1/45/45 70/57/57 72/9/9 26/38/38
f 26/38/38 72/9/9 71/12/12 11/39/39
f 33/36/36 14/35/35 73/73/73
f 51/71/71 40/28/28 73/73/73
f 18/19/19 47/24/24 73/73/73
f 59/16/16 13/15/15 73/73/73
f 68/8/8 12/7/7 73/73/73
f 34/66/66 56/20/20 73/73/73
f 52/65/65 33/36/36 73/73/73
f 19/23/23 44/32/32 73/73/73
f 13/15/15 63/40/40 73/73/73
f 64/4/4 15/3/3 73/73/73
f 11/39/39 71/12/12 73/73/73
f 71/12/12 20/11/11 73/73/73
f 14/35/35 39/72/72 73/73/73
f 44/32/32 17/31/31 73/73/73
f 12/7/7 64/4/4 73/73/73
f 39/72/72 59/16/16 73/73/73
f 15/3/3 51/71/71 73/73/73
f 56/20/20 18/19/19 73/73/73
f 47/24/24 19/23/23 73/73/73
f 20/11/11 68/8/8 73/73/73
f 40/28/28 16/27/27 73/73/73
f 17/31/31 52/65/65 73/73/73
f 16/27/27 34/66/66 73/73/73
f 63/40/40 11/39/39 73/73/73
