# Blender v2.79 (sub 0) OBJ File: 'sockexplodedretopo.blend'
# www.blender.org
o band_Cylinder.003
v -3.417417 7.635550 -2.274838
v -3.031519 7.658879 -1.893163
v -3.063611 7.664275 -1.244643
v -3.492722 7.683043 -0.890156
v -4.019404 7.648373 -1.056923
v -4.262233 7.652244 -1.475446
v -4.250977 7.664131 -1.966892
v -3.951931 7.666819 -2.285896
v -2.974948 7.664586 -1.571132
v -3.789093 7.667404 -0.902301
v -3.167110 7.646028 -2.109252
v -3.414230 7.385298 -2.325514
v -3.029625 7.405125 -1.902935
v -3.083544 7.414238 -1.264135
v -3.513401 7.422091 -0.895827
v -4.034952 7.398098 -1.037964
v -4.314793 7.394259 -1.472877
v -4.327319 7.400727 -1.996450
v -3.984322 7.402528 -2.359197
v -2.992012 7.411832 -1.584208
v -3.792652 7.410548 -0.898432
v -3.158389 7.396606 -2.133969
v -3.702201 7.653652 -2.328587
v -3.710752 7.396395 -2.401832
v -3.900003 7.657347 -0.961652
v -3.909652 7.404818 -0.947041
v -3.658826 7.677510 -0.874420
v -3.663157 7.416899 -0.876267
v -4.164075 7.651038 -1.241137
v -3.233658 7.674267 -1.032793
v -3.249001 7.416899 -1.046898
v -4.199250 7.397927 -1.229023
v -4.290947 7.662425 -1.737267
v -2.993685 7.662773 -1.419333
v -4.359339 7.400179 -1.748259
v -3.016971 7.412145 -1.431226
v -2.984227 7.663543 -1.724827
v -4.133258 7.672780 -2.158639
v -2.995808 7.409360 -1.740792
v -4.197952 7.407801 -2.218827
v -3.031449 7.255366 -1.911782
v -3.098064 7.267713 -1.271470
v -3.516894 7.268838 -0.903033
v -4.042921 7.251281 -1.033384
v -4.333342 7.242109 -1.474314
v -4.357923 7.243499 -2.007073
v -3.998501 7.247747 -2.390131
v -3.003575 7.264521 -1.593031
v -3.795691 7.260431 -0.899072
v -3.155717 7.248242 -2.149093
v -3.410394 7.238588 -2.349294
v -3.714344 7.245202 -2.432540
v -3.913868 7.256214 -0.945439
v -3.666591 7.264798 -0.879228
v -4.213587 7.248084 -1.227852
v -3.262032 7.267151 -1.053073
v -3.030642 7.265722 -1.440602
v -4.384126 7.243971 -1.752153
v -4.223574 7.249897 -2.243482
v -3.002919 7.260300 -1.748867
v -3.414566 7.509530 -2.302264
v -3.029773 7.531490 -1.898100
v -3.072488 7.538692 -1.254018
v -3.502791 7.551928 -0.891910
v -4.028283 7.522783 -1.046137
v -4.290643 7.522408 -1.473904
v -4.291888 7.531790 -1.982402
v -3.968863 7.534811 -2.324293
v -2.982926 7.537844 -1.577525
v -3.792884 7.538126 -0.899604
v -3.162437 7.520720 -2.121863
v -3.704575 7.524976 -2.368448
v -3.904712 7.529850 -0.951923
v -3.661053 7.546576 -0.874437
v -3.240382 7.544944 -1.039039
v -4.183117 7.524088 -1.234232
v -4.327363 7.530445 -1.742579
v -3.003822 7.536969 -1.426336
v -2.988923 7.535819 -1.733256
v -4.167280 7.540371 -2.190309
vt 0.078916 0.031330
vt 0.082075 0.003644
vt 0.138555 0.003534
vt 0.136456 0.031641
vt 0.242026 0.035676
vt 0.245000 0.007901
vt 0.286482 0.011153
vt 0.282852 0.038809
vt 0.498408 0.073030
vt 0.503165 0.045208
vt 0.536230 0.052313
vt 0.531968 0.079853
vt 0.585120 0.086823
vt 0.587577 0.058597
vt 0.643405 0.063857
vt 0.642493 0.093102
vt 0.701977 0.094613
vt 0.701564 0.064467
vt 0.753035 0.063336
vt 0.755033 0.093953
vt 0.807408 0.086219
vt 0.802198 0.055925
vt 0.850089 0.045954
vt 0.858556 0.075220
vt 0.914485 0.057162
vt 0.903684 0.029490
vt 0.963458 0.005808
vt 0.975131 0.031917
vt 0.342795 0.044429
vt 0.346368 0.016038
vt 0.411282 0.023862
vt 0.408644 0.052786
vt 0.173984 0.032209
vt 0.177232 0.004084
vt 0.211257 0.005464
vt 0.208395 0.033428
vt 0.443062 0.059818
vt 0.447452 0.031235
vt 0.476102 0.038440
vt 0.471902 0.066683
vt 0.010406 0.028056
vt 0.015769 0.000040
vt 0.000040 0.087983
vt 0.005158 0.055512
vt 0.075778 0.058728
vt 0.071615 0.091435
vt 0.433853 0.121370
vt 0.438720 0.088100
vt 0.467052 0.094390
vt 0.462166 0.127201
vt 0.167450 0.092950
vt 0.170886 0.060080
vt 0.205498 0.061232
vt 0.201909 0.093754
vt 0.336206 0.105721
vt 0.339339 0.072625
vt 0.406028 0.081431
vt 0.400933 0.114964
vt 0.936320 0.116507
vt 0.924237 0.084679
vt 0.986183 0.057656
vt 0.999960 0.087651
vt 0.818697 0.151094
vt 0.812533 0.116035
vt 0.866897 0.104226
vt 0.876443 0.137622
vt 0.702599 0.158803
vt 0.702533 0.124022
vt 0.757118 0.123740
vt 0.759169 0.158803
vt 0.580211 0.147819
vt 0.582704 0.114712
vt 0.641510 0.121708
vt 0.640297 0.155456
vt 0.489711 0.132786
vt 0.494369 0.100303
vt 0.527803 0.107090
vt 0.523652 0.139295
vt 0.236087 0.095698
vt 0.239690 0.063321
vt 0.279338 0.066274
vt 0.276235 0.098715
vt 0.134258 0.059499
vt 0.130859 0.092497
vn 0.7307 0.0967 -0.6758
vn 0.7285 0.1023 -0.6773
vn 0.9214 0.0291 -0.3874
vn 0.9251 0.0235 -0.3790
vn 0.9623 -0.0950 0.2549
vn 0.9634 -0.0867 0.2537
vn 0.8586 -0.0907 0.5046
vn 0.8620 -0.1000 0.4968
vn -0.5196 0.0634 0.8520
vn -0.5333 0.0769 0.8424
vn -0.6978 0.1133 0.7072
vn -0.6910 0.0999 0.7158
vn -0.8412 0.1423 0.5217
vn -0.8441 0.1554 0.5131
vn -0.9416 0.2098 0.2634
vn -0.9419 0.1955 0.2730
vn -0.9683 0.2496 -0.0009
vn -0.9641 0.2651 -0.0110
vn -0.8948 0.3079 -0.3232
vn -0.9031 0.2911 -0.3156
vn -0.6927 0.3062 -0.6530
vn -0.6891 0.3212 -0.6495
vn -0.3506 0.3097 -0.8838
vn -0.3452 0.2936 -0.8914
vn 0.0423 0.2571 -0.9654
vn 0.0293 0.2772 -0.9604
vn 0.3962 0.2007 -0.8959
vn 0.4063 0.1849 -0.8948
vn 0.6476 -0.0826 0.7575
vn 0.6415 -0.0730 0.7636
vn 0.3078 -0.0366 0.9507
vn 0.3048 -0.0441 0.9514
vn 0.9896 -0.0303 -0.1405
vn 0.9888 -0.0238 -0.1473
vn 0.9971 -0.0630 0.0427
vn 0.9963 -0.0703 0.0496
vn -0.0393 -0.0065 0.9992
vn -0.0421 0.0010 0.9991
vn -0.3204 0.0353 0.9466
vn -0.3123 0.0257 0.9496
vn 0.4317 0.1495 -0.8896
vn 0.4271 0.1589 -0.8901
vn 0.7497 0.0845 -0.6564
vn 0.7488 0.0833 -0.6575
vn -0.0130 -0.0220 0.9997
vn -0.0183 -0.0186 0.9996
vn -0.2806 0.0080 0.9598
vn -0.2728 0.0022 0.9620
vn 0.9938 -0.0395 -0.1036
vn 0.9928 -0.0395 -0.1132
vn 0.9945 -0.0785 0.0695
vn 0.9940 -0.0781 0.0759
vn 0.6564 -0.0845 0.7497
vn 0.6566 -0.0887 0.7490
vn 0.3158 -0.0519 0.9474
vn 0.3262 -0.0516 0.9439
vn 0.0551 0.1929 -0.9796
vn 0.0513 0.2156 -0.9751
vn -0.7115 0.2155 -0.6688
vn -0.7041 0.2530 -0.6635
vn -0.3450 0.2449 -0.9061
vn -0.3467 0.2131 -0.9134
vn -0.9871 0.1581 0.0262
vn -0.9804 0.1960 0.0183
vn -0.9219 0.2346 -0.3083
vn -0.9326 0.1957 -0.3033
vn -0.8361 0.0847 0.5419
vn -0.8351 0.1066 0.5396
vn -0.9443 0.1487 0.2934
vn -0.9473 0.1176 0.2978
vn -0.4820 0.0271 0.8757
vn -0.4915 0.0383 0.8700
vn -0.6760 0.0709 0.7334
vn -0.6720 0.0558 0.7384
vn 0.9582 -0.1026 0.2670
vn 0.9584 -0.1033 0.2659
vn 0.8650 -0.1079 0.4901
vn 0.8657 -0.1064 0.4891
vn 0.9369 0.0138 -0.3494
vn 0.9388 0.0128 -0.3441
s 1
f 71/1/1 11/2/2 2/3/3 62/4/4
f 78/5/5 34/6/6 3/7/7 63/8/8
f 73/9/9 25/10/10 5/11/11 65/12/12
f 76/13/13 29/14/14 6/15/15 66/16/16
f 77/17/17 33/18/18 7/19/19 67/20/20
f 80/21/21 38/22/22 8/23/23 68/24/24
f 72/25/25 23/26/26 1/27/27 61/28/28
f 75/29/29 30/30/30 4/31/31 64/32/32
f 79/33/33 37/34/34 9/35/35 69/36/36
f 74/37/37 27/38/38 10/39/39 70/40/40
f 61/41/28 1/42/27 11/2/2 71/1/1
f 51/43/41 12/44/42 22/45/43 50/46/44
f 54/47/45 28/48/46 21/49/47 49/50/48
f 60/51/49 39/52/50 20/53/51 48/54/52
f 56/55/53 31/56/54 15/57/55 43/58/56
f 52/59/57 24/60/58 12/61/42 51/62/41
f 59/63/59 40/64/60 19/65/61 47/66/62
f 58/67/63 35/68/64 18/69/65 46/70/66
f 55/71/67 32/72/68 17/73/69 45/74/70
f 53/75/71 26/76/72 16/77/73 44/78/74
f 57/79/75 36/80/76 14/81/77 42/82/78
f 50/46/44 22/45/43 13/83/79 41/84/80
f 47/66/62 19/65/61 24/60/58 52/59/57
f 68/24/24 8/23/23 23/26/26 72/25/25
f 49/50/48 21/49/47 26/76/72 53/75/71
f 70/40/40 10/39/39 25/10/10 73/9/9
f 43/58/56 15/57/55 28/48/46 54/47/45
f 64/32/32 4/31/31 27/38/38 74/37/37
f 44/78/74 16/77/73 32/72/68 55/71/67
f 42/82/78 14/81/77 31/56/54 56/55/53
f 63/8/8 3/7/7 30/30/30 75/29/29
f 65/12/12 5/11/11 29/14/14 76/13/13
f 48/54/52 20/53/51 36/80/76 57/79/75
f 45/74/70 17/73/69 35/68/64 58/67/63
f 66/16/16 6/15/15 33/18/18 77/17/17
f 69/36/36 9/35/35 34/6/6 78/5/5
f 46/70/66 18/69/65 40/64/60 59/63/59
f 41/84/80 13/83/79 39/52/50 60/51/49
f 62/4/4 2/3/3 37/34/34 79/33/33
f 67/20/20 7/19/19 38/22/22 80/21/21
f 18/69/65 67/20/20 80/21/21 40/64/60
f 13/83/79 62/4/4 79/33/33 39/52/50
f 20/53/51 69/36/36 78/5/5 36/80/76
f 17/73/69 66/16/16 77/17/17 35/68/64
f 16/77/73 65/12/12 76/13/13 32/72/68
f 14/81/77 63/8/8 75/29/29 31/56/54
f 15/57/55 64/32/32 74/37/37 28/48/46
f 21/49/47 70/40/40 73/9/9 26/76/72
f 19/65/61 68/24/24 72/25/25 24/60/58
f 12/44/42 61/41/28 71/1/1 22/45/43
f 28/48/46 74/37/37 70/40/40 21/49/47
f 39/52/50 79/33/33 69/36/36 20/53/51
f 31/56/54 75/29/29 64/32/32 15/57/55
f 24/60/58 72/25/25 61/28/28 12/61/42
f 40/64/60 80/21/21 68/24/24 19/65/61
f 35/68/64 77/17/17 67/20/20 18/69/65
f 32/72/68 76/13/13 66/16/16 17/73/69
f 26/76/72 73/9/9 65/12/12 16/77/73
f 36/80/76 78/5/5 63/8/8 14/81/77
f 22/45/43 71/1/1 62/4/4 13/83/79
