# Blender v2.79 (sub 0) OBJ File: 'crewsockexploded.blend'
# www.blender.org
o welt_Cylinder.004
v -3.410891 7.117142 -2.346356
v -3.041138 7.159593 -1.916682
v -3.116788 7.160068 -1.281359
v -3.521703 7.126842 -0.917181
v -4.043722 7.107212 -1.038219
v -4.338239 7.093418 -1.479024
v -4.368903 7.088846 -2.002744
v -4.007473 7.095756 -2.385248
v -3.020700 7.170323 -1.600648
v -3.796715 7.114954 -0.909374
v -3.159532 7.142664 -2.148755
v -3.401231 6.818569 -2.370359
v -3.042850 6.861300 -1.925017
v -3.135744 6.861981 -1.289680
v -3.523429 6.828850 -0.928056
v -4.058139 6.814606 -1.049261
v -4.353702 6.809811 -1.483890
v -4.385062 6.806260 -2.015656
v -4.010639 6.803373 -2.409419
v -3.033162 6.872915 -1.608294
v -3.805421 6.818593 -0.919150
v -3.156863 6.842564 -2.166819
v -3.718128 7.104103 -2.427964
v -3.714931 6.807510 -2.452980
v -3.914125 7.111510 -0.953355
v -3.924783 6.816429 -0.963792
v -3.668341 7.119721 -0.893039
v -3.671931 6.822251 -0.904074
v -4.217246 7.100699 -1.233851
v -3.278391 7.141155 -1.064181
v -3.292464 6.842898 -1.073642
v -4.234638 6.812010 -1.245011
v -4.392648 7.091191 -1.752764
v -3.048951 7.167224 -1.450948
v -3.066669 6.869506 -1.459444
v -4.409799 6.808505 -1.758805
v -4.235208 7.092753 -2.238353
v -3.015329 7.167179 -1.753011
v -3.023624 6.869272 -1.758643
v -4.242730 6.804881 -2.258824
v -3.403063 6.961789 -2.365453
v -3.037116 7.005365 -1.923046
v -3.123386 7.006120 -1.283779
v -3.519770 6.971714 -0.917981
v -4.055174 6.954292 -1.038759
v -4.353227 6.946003 -1.479969
v -4.385012 6.941659 -2.013052
v -4.011904 6.944185 -2.406114
v -3.022338 7.016998 -1.604637
v -3.802563 6.960519 -0.908655
v -3.154027 6.987389 -2.163984
v -3.716414 6.950587 -2.449725
v -3.921981 6.957352 -0.953293
v -3.670005 6.964839 -0.893186
v -3.283083 6.986321 -1.065892
v -4.232111 6.950418 -1.235650
v -3.054348 7.013733 -1.454557
v -4.409098 6.944510 -1.756515
v -3.015043 7.013779 -1.756896
v -4.244898 6.943017 -2.255099
v -3.401211 6.759397 -2.370512
v -3.160433 6.782750 -2.166588
v -3.296214 6.783668 -1.079928
v -3.525194 6.770499 -0.934182
v -3.925434 6.758787 -0.969231
v -4.057586 6.757492 -1.053709
v -4.237941 6.749433 -2.258564
v -4.008440 6.746898 -2.407590
v -3.806339 6.760685 -0.924833
v -3.142437 6.802536 -1.292913
v -4.380817 6.751948 -2.015315
v -3.672714 6.764054 -0.910241
v -4.351476 6.754922 -1.484892
v -4.406641 6.754058 -1.759421
v -3.049045 6.801558 -1.924311
v -3.713852 6.749567 -2.452903
v -4.232663 6.755768 -1.247304
v -3.030368 6.809824 -1.758956
v -3.040031 6.813601 -1.609664
v -3.073684 6.810034 -1.461810
v -3.417754 7.117316 -2.325974
v -3.057961 7.158624 -1.907873
v -3.131574 7.159086 -1.289663
v -3.525581 7.126755 -0.935294
v -4.033540 7.107654 -1.053072
v -4.320124 7.094231 -1.482003
v -4.349962 7.089783 -1.991617
v -3.998268 7.096506 -2.363819
v -3.038074 7.169065 -1.600352
v -3.793186 7.115187 -0.927698
v -3.173166 7.142151 -2.133696
v -3.716716 7.104629 -2.405384
v -3.907434 7.111836 -0.970494
v -3.668270 7.119826 -0.911803
v -4.202390 7.101317 -1.243435
v -3.288824 7.140683 -1.078334
v -4.373068 7.092064 -1.748370
v -3.065564 7.166050 -1.454684
v -4.219869 7.093584 -2.220881
v -3.032847 7.166006 -1.748611
v -3.407015 7.088951 -2.357115
v -3.034384 7.132014 -1.920989
v -3.112687 7.132545 -1.278823
v -3.519963 7.098784 -0.910838
v -4.049443 7.079365 -1.032997
v -4.347441 7.066434 -1.478127
v -4.378603 7.061860 -2.008596
v -4.011573 7.068043 -2.396702
v -3.014774 7.143012 -1.601477
v -3.799037 7.086907 -0.902681
v -3.153652 7.114733 -2.156907
v -3.718323 7.076118 -2.439992
v -3.917944 7.083480 -0.947205
v -3.668668 7.091640 -0.886345
v -3.275504 7.113289 -1.059421
v -4.225259 7.073267 -1.230744
v -3.043978 7.139853 -1.450263
v -4.402640 7.064319 -1.755016
v -3.009002 7.139824 -1.755291
v -4.242457 7.065343 -2.247644
vt 0.905815 0.052023
vt 0.902345 0.046848
vt 0.951746 0.003216
vt 0.956082 0.008194
vt 0.809084 0.106822
vt 0.806613 0.101445
vt 0.854106 0.078743
vt 0.857017 0.084036
vt 0.708408 0.133219
vt 0.706854 0.127410
vt 0.756497 0.117911
vt 0.758490 0.123499
vt 0.592473 0.143861
vt 0.591774 0.137740
vt 0.649215 0.134682
vt 0.650307 0.140667
vt 0.503352 0.141551
vt 0.503508 0.135257
vt 0.536465 0.137348
vt 0.536619 0.143583
vt 0.260752 0.087565
vt 0.262697 0.081426
vt 0.301361 0.093895
vt 0.299858 0.100021
vt 0.103335 0.039980
vt 0.106638 0.034307
vt 0.160757 0.051826
vt 0.158147 0.057748
vt 0.356798 0.117547
vt 0.357816 0.111333
vt 0.417388 0.124643
vt 0.416644 0.130876
vt 0.193983 0.067576
vt 0.196331 0.061561
vt 0.229652 0.070929
vt 0.227465 0.076993
vt 0.448327 0.135864
vt 0.448807 0.129585
vt 0.476638 0.132830
vt 0.476334 0.139148
vt 0.037155 0.009390
vt 0.041317 0.003677
vt 0.000046 0.078375
vt 0.006368 0.065907
vt 0.075453 0.094452
vt 0.069069 0.107065
vt 0.442339 0.209524
vt 0.443432 0.195748
vt 0.474529 0.198956
vt 0.474247 0.212612
vt 0.168298 0.140806
vt 0.173219 0.127085
vt 0.208131 0.137507
vt 0.203763 0.151508
vt 0.343428 0.191561
vt 0.346245 0.177698
vt 0.408741 0.190459
vt 0.406895 0.204205
vt 0.135002 0.115020
vt 0.129454 0.128294
vt 0.239604 0.162491
vt 0.243375 0.148409
vt 0.285509 0.160715
vt 0.282445 0.174755
vt 0.504249 0.214273
vt 0.503914 0.200824
vt 0.540099 0.201688
vt 0.540801 0.214765
vt 0.600286 0.212971
vt 0.599309 0.200325
vt 0.658330 0.195455
vt 0.659888 0.207601
vt 0.721635 0.198069
vt 0.719203 0.186292
vt 0.773491 0.173931
vt 0.776975 0.185227
vt 0.835141 0.165841
vt 0.830087 0.155035
vt 0.882967 0.130771
vt 0.888857 0.141324
vt 0.943913 0.108220
vt 0.936963 0.097926
vt 0.992484 0.055253
vt 0.999954 0.065736
vt 0.765324 0.146838
vt 0.818737 0.128977
vt 0.147692 0.084092
vt 0.184628 0.094885
vt 0.653978 0.166085
vt 0.713225 0.157782
vt 0.218601 0.104761
vt 0.252658 0.115430
vt 0.538163 0.170549
vt 0.595543 0.170053
vt 0.293159 0.127833
vt 0.351806 0.145192
vt 0.412676 0.158176
vt 0.446053 0.163363
vt 0.475455 0.166720
vt 0.503514 0.168995
vt 0.869073 0.105428
vt 0.920328 0.073069
vt 0.022327 0.035714
vt 0.090229 0.064776
vt 0.973753 0.030004
vt 0.591613 0.134028
vt 0.648227 0.130909
vt 0.477281 0.128760
vt 0.504207 0.131290
vt 0.537036 0.133509
vt 0.705100 0.123636
vt 0.302496 0.090345
vt 0.358424 0.107539
vt 0.044917 0.000046
vt 0.108925 0.030415
vt 0.754435 0.114034
vt 0.804522 0.097402
vt 0.264140 0.077765
vt 0.231302 0.067233
vt 0.162642 0.048022
vt 0.198158 0.057831
vt 0.851969 0.074497
vt 0.900050 0.042946
vt 0.417555 0.120612
vt 0.449288 0.125375
vt 0.948553 0.000046
vn 0.0461 0.2328 -0.9714
vn 0.0114 0.7962 -0.6048
vn 0.2379 0.7913 -0.5633
vn 0.4264 0.2158 -0.8784
vn -0.7078 0.2264 -0.6691
vn -0.4572 0.7879 -0.4125
vn -0.2277 0.7942 -0.5634
vn -0.3477 0.2333 -0.9081
vn -0.9792 0.1978 0.0456
vn -0.6214 0.7829 0.0303
vn -0.5988 0.7806 -0.1792
vn -0.9304 0.2126 -0.2984
vn -0.8207 0.1563 0.5495
vn -0.5380 0.7694 0.3443
vn -0.6011 0.7749 0.1954
vn -0.9328 0.1780 0.3133
vn -0.4494 0.1125 0.8862
vn -0.3079 0.7643 0.5666
vn -0.4345 0.7633 0.4781
vn -0.6472 0.1308 0.7510
vn 0.9572 0.0507 0.2847
vn 0.6033 0.7719 0.2005
vn 0.5465 0.7610 0.3495
vn 0.8708 0.0453 0.4895
vn 0.7546 0.1799 -0.6309
vn 0.4483 0.7874 -0.4230
vn 0.5753 0.7870 -0.2226
vn 0.9425 0.1306 -0.3077
vn 0.6704 0.0602 0.7396
vn 0.4224 0.7437 0.5182
vn 0.2002 0.7485 0.6322
vn 0.3417 0.0808 0.9363
vn 0.9936 0.0962 -0.0588
vn 0.6105 0.7898 -0.0585
vn 0.6133 0.7867 0.0703
vn 0.9907 0.0719 0.1154
vn 0.0162 0.0902 0.9958
vn -0.0164 0.7556 0.6548
vn -0.1767 0.7611 0.6241
vn -0.2393 0.0999 0.9658
vn 0.4538 -0.0081 -0.8910
vn 0.4578 0.0079 -0.8890
vn 0.7913 -0.0254 -0.6109
vn 0.7856 -0.0477 -0.6168
vn 0.0245 -0.1040 0.9943
vn 0.0273 -0.0894 0.9956
vn -0.2303 -0.0805 0.9698
vn -0.2334 -0.0927 0.9679
vn 0.9935 -0.1114 -0.0232
vn 0.9961 -0.0844 -0.0266
vn 0.9857 -0.0966 0.1380
vn 0.9829 -0.1176 0.1415
vn 0.6823 -0.1175 0.7216
vn 0.6828 -0.1007 0.7237
vn 0.3560 -0.0949 0.9296
vn 0.3528 -0.1124 0.9289
vn 0.9600 -0.0635 -0.2728
vn 0.9576 -0.0929 -0.2726
vn 0.9475 -0.1222 0.2953
vn 0.9503 -0.1054 0.2929
vn 0.8720 -0.1061 0.4777
vn 0.8690 -0.1212 0.4797
vn -0.4485 -0.0787 0.8903
vn -0.4453 -0.0682 0.8928
vn -0.6462 -0.0537 0.7612
vn -0.6479 -0.0645 0.7590
vn -0.8256 -0.0521 0.5618
vn -0.8270 -0.0371 0.5609
vn -0.9456 -0.0277 0.3242
vn -0.9445 -0.0495 0.3246
vn -0.9969 -0.0600 0.0497
vn -0.9982 -0.0287 0.0515
vn -0.9510 -0.0335 -0.3071
vn -0.9476 -0.0722 -0.3112
vn -0.7151 -0.0628 -0.6961
vn -0.7246 -0.0267 -0.6887
vn -0.3544 -0.0090 -0.9350
vn -0.3513 -0.0357 -0.9356
vn 0.0540 -0.0090 -0.9985
vn 0.0545 0.0086 -0.9985
vn -0.9521 0.0307 -0.3043
vn -0.7244 0.0356 -0.6884
vn 0.9575 -0.0237 -0.2874
vn 0.9979 -0.0508 -0.0403
vn -0.9460 0.0174 0.3235
vn -0.9983 0.0270 0.0522
vn 0.9893 -0.0707 0.1275
vn 0.9537 -0.0862 0.2879
vn -0.6483 -0.0237 0.7610
vn -0.8277 -0.0003 0.5611
vn 0.8723 -0.0898 0.4805
vn 0.6810 -0.0790 0.7280
vn 0.3552 -0.0682 0.9323
vn 0.0250 -0.0633 0.9977
vn -0.2336 -0.0546 0.9708
vn -0.4474 -0.0419 0.8933
vn -0.3527 0.0443 -0.9347
vn 0.0556 0.0512 -0.9971
vn 0.4514 0.0456 -0.8911
vn 0.7813 0.0158 -0.6239
vn -0.0430 0.9991 -0.0023
vn -0.0454 0.9989 -0.0034
vn -0.0347 0.9994 0.0060
vn -0.0342 0.9994 0.0056
vn -0.0383 0.9992 0.0035
vn -0.0434 0.9990 -0.0052
vn -0.0772 0.9968 0.0196
vn -0.0685 0.9975 0.0172
vn -0.0573 0.9980 -0.0278
vn -0.0750 0.9966 -0.0340
vn -0.0428 0.9990 -0.0112
vn -0.0366 0.9992 -0.0154
vn -0.0727 0.9973 0.0100
vn -0.0723 0.9973 -0.0069
vn -0.0753 0.9966 -0.0343
vn -0.0738 0.9969 -0.0281
vn -0.0300 0.9993 -0.0221
vn -0.0345 0.9992 -0.0211
vn -0.0514 0.9987 0.0062
vn -0.0428 0.9991 0.0054
s 1
f 112/1/1 23/2/2 1/3/3 101/4/4
f 120/5/5 37/6/6 8/7/7 108/8/8
f 118/9/9 33/10/10 7/11/11 107/12/12
f 116/13/13 29/14/14 6/15/15 106/16/16
f 113/17/17 25/18/18 5/19/19 105/20/20
f 117/21/21 34/22/22 3/23/23 103/24/24
f 111/25/25 11/26/26 2/27/27 102/28/28
f 115/29/29 30/30/30 4/31/31 104/32/32
f 119/33/33 38/34/34 9/35/35 109/36/36
f 114/37/37 27/38/38 10/39/39 110/40/40
f 101/41/4 1/42/3 11/26/26 111/25/25
f 61/43/41 12/44/42 22/45/43 62/46/44
f 72/47/45 28/48/46 21/49/47 69/50/48
f 78/51/49 39/52/50 20/53/51 79/54/52
f 63/55/53 31/56/54 15/57/55 64/58/56
f 62/46/44 22/45/43 13/59/57 75/60/58
f 80/61/59 35/62/60 14/63/61 70/64/62
f 65/65/63 26/66/64 16/67/65 66/68/66
f 77/69/67 32/70/68 17/71/69 73/72/70
f 74/73/71 36/74/72 18/75/73 71/76/74
f 67/77/75 40/78/76 19/79/77 68/80/78
f 76/81/79 24/82/80 12/83/42 61/84/41
f 68/80/78 19/79/77 24/82/80 76/81/79
f 108/8/8 8/7/7 23/2/2 112/1/1
f 69/50/48 21/49/47 26/66/64 65/65/63
f 110/40/40 10/39/39 25/18/18 113/17/17
f 64/58/56 15/57/55 28/48/46 72/47/45
f 104/32/32 4/31/31 27/38/38 114/37/37
f 66/68/66 16/67/65 32/70/68 77/69/67
f 70/64/62 14/63/61 31/56/54 63/55/53
f 103/24/24 3/23/23 30/30/30 115/29/29
f 105/20/20 5/19/19 29/14/14 116/13/13
f 73/72/70 17/71/69 36/74/72 74/73/71
f 79/54/52 20/53/51 35/62/60 80/61/59
f 109/36/36 9/35/35 34/22/22 117/21/21
f 106/16/16 6/15/15 33/10/10 118/9/9
f 71/76/74 18/75/73 40/78/76 67/77/75
f 75/60/58 13/59/57 39/52/50 78/51/49
f 102/28/28 2/27/27 38/34/34 119/33/33
f 107/12/12 7/11/11 37/6/6 120/5/5
f 18/75/73 47/85/81 60/86/82 40/78/76
f 13/59/57 42/87/83 59/88/84 39/52/50
f 17/71/69 46/89/85 58/90/86 36/74/72
f 20/53/51 49/91/87 57/92/88 35/62/60
f 16/67/65 45/93/89 56/94/90 32/70/68
f 14/63/61 43/95/91 55/96/92 31/56/54
f 15/57/55 44/97/93 54/98/94 28/48/46
f 21/49/47 50/99/95 53/100/96 26/66/64
f 19/79/77 48/101/97 52/102/98 24/82/80
f 12/44/42 41/103/99 51/104/100 22/45/43
f 28/48/46 54/98/94 50/99/95 21/49/47
f 39/52/50 59/88/84 49/91/87 20/53/51
f 31/56/54 55/96/92 44/97/93 15/57/55
f 22/45/43 51/104/100 42/87/83 13/59/57
f 35/62/60 57/92/88 43/95/91 14/63/61
f 26/66/64 53/100/96 45/93/89 16/67/65
f 32/70/68 56/94/90 46/89/85 17/71/69
f 36/74/72 58/90/86 47/85/81 18/75/73
f 40/78/76 60/86/82 48/101/97 19/79/77
f 24/82/80 52/102/98 41/105/99 12/83/42
f 6/15/15 29/14/14 95/106/101 86/107/102
f 25/18/18 10/39/39 90/108/103 93/109/104
f 29/14/14 5/19/19 85/110/105 95/106/101
f 5/19/19 25/18/18 93/109/104 85/110/105
f 33/10/10 6/15/15 86/107/102 97/111/106
f 30/30/30 3/23/23 83/112/107 96/113/108
f 11/26/26 1/42/3 81/114/109 91/115/110
f 37/6/6 7/11/11 87/116/111 99/117/112
f 3/23/23 34/22/22 98/118/113 83/112/107
f 34/22/22 9/35/35 89/119/114 98/118/113
f 38/34/34 2/27/27 82/120/115 100/121/116
f 2/27/27 11/26/26 91/115/110 82/120/115
f 23/2/2 8/7/7 88/122/117 92/123/118
f 27/38/38 4/31/31 84/124/119 94/125/120
f 4/31/31 30/30/30 96/113/108 84/124/119
f 1/3/3 23/2/2 92/123/118 81/126/109
f 9/35/35 38/34/34 100/121/116 89/119/114
f 8/7/7 37/6/6 99/117/112 88/122/117
f 7/11/11 33/10/10 97/111/106 87/116/111
f 10/39/39 27/38/38 94/125/120 90/108/103
f 47/85/81 107/12/12 120/5/5 60/86/82
f 42/87/83 102/28/28 119/33/33 59/88/84
f 46/89/85 106/16/16 118/9/9 58/90/86
f 49/91/87 109/36/36 117/21/21 57/92/88
f 45/93/89 105/20/20 116/13/13 56/94/90
f 43/95/91 103/24/24 115/29/29 55/96/92
f 44/97/93 104/32/32 114/37/37 54/98/94
f 50/99/95 110/40/40 113/17/17 53/100/96
f 48/101/97 108/8/8 112/1/1 52/102/98
f 41/103/99 101/41/4 111/25/25 51/104/100
f 54/98/94 114/37/37 110/40/40 50/99/95
f 59/88/84 119/33/33 109/36/36 49/91/87
f 55/96/92 115/29/29 104/32/32 44/97/93
f 51/104/100 111/25/25 102/28/28 42/87/83
f 57/92/88 117/21/21 103/24/24 43/95/91
f 53/100/96 113/17/17 105/20/20 45/93/89
f 56/94/90 116/13/13 106/16/16 46/89/85
f 58/90/86 118/9/9 107/12/12 47/85/81
f 60/86/82 120/5/5 108/8/8 48/101/97
f 52/102/98 112/1/1 101/4/4 41/105/99
