# Blender v2.79 (sub 0) OBJ File: 'sockexplodedretopo_threequarter.blend'
# www.blender.org
o body.002_Cylinder.005
v -3.441562 5.969342 -2.318546
v -3.176824 5.983379 -1.903914
v -3.261834 5.996713 -1.361405
v -3.566759 5.992359 -1.049574
v -4.015342 5.993189 -1.136673
v -4.262015 6.014264 -1.513234
v -4.256611 6.022738 -1.988548
v -3.951224 5.988558 -2.345966
v -3.170396 5.994726 -1.635052
v -3.802591 5.988902 -1.034816
v -3.258440 5.973782 -2.118768
v -4.175784 5.693602 -1.949431
v -3.227120 5.643219 -1.888584
v -3.974499 5.661180 -1.180675
v -3.704709 5.977687 -2.399490
v -3.904158 5.989532 -1.070031
v -3.687101 5.989510 -1.026826
v -4.162918 6.000962 -1.300664
v -3.382987 5.991401 -1.179534
v -3.202543 5.995870 -1.506829
v -4.292579 6.019571 -1.761896
v -4.133671 6.004311 -2.207479
v -3.161779 5.989210 -1.764407
v -4.211345 5.841226 -1.967226
v -3.205961 5.795153 -1.895183
v -3.993275 5.809559 -1.161350
v -3.928542 5.806049 -2.315129
v -3.293494 5.807720 -1.374195
v -4.222037 5.831179 -1.514822
v -3.456106 5.786159 -2.290332
v -3.579797 5.806690 -1.080186
v -3.202447 5.804587 -1.636899
v -3.797529 5.804045 -1.067716
v -3.284187 5.788010 -2.100989
v -3.698804 5.793931 -2.366268
v -3.891061 5.805350 -1.100060
v -3.690926 5.804562 -1.059627
v -4.130085 5.817498 -1.313079
v -3.407636 5.804334 -1.200977
v -3.236124 5.806282 -1.512637
v -4.246775 5.836810 -1.751409
v -4.099674 5.822073 -2.173857
v -3.192152 5.799822 -1.759666
v -3.301749 5.638159 -2.087813
v -3.466473 5.638671 -2.268922
v -3.692903 5.655026 -1.085331
v -3.589514 5.656742 -1.105275
v -3.214671 5.646792 -1.755278
v -3.428659 5.653094 -1.216148
v -3.316706 5.654583 -1.382456
v -3.880321 5.656529 -1.124096
v -3.793324 5.654728 -1.094117
v -4.210291 5.688612 -1.741978
v -4.187657 5.682690 -1.512820
v -3.693902 5.645998 -2.339190
v -3.908269 5.658958 -2.288601
v -4.102842 5.668893 -1.322440
v -3.260464 5.652540 -1.515570
v -3.227515 5.650833 -1.635360
v -4.073848 5.674069 -2.146340
v -3.171673 6.013972 -1.905314
v -3.256750 6.027052 -1.358492
v -3.564651 6.022423 -1.044428
v -4.017913 6.022850 -1.132474
v -4.267590 6.043231 -1.512210
v -4.263755 6.051227 -1.991027
v -3.954460 6.018031 -2.351355
v -3.164977 6.025336 -1.634227
v -3.803167 6.018784 -1.029581
v -3.253498 6.004360 -2.121257
v -3.705051 6.007696 -2.404538
v -3.905828 6.019335 -1.065203
v -3.686463 6.019444 -1.021476
v -4.167243 6.030365 -1.298034
v -3.378904 6.021588 -1.175533
v -4.299535 6.048361 -1.762382
v -3.197088 6.026320 -1.505062
v -4.139414 6.033600 -2.211347
v -3.156484 6.019830 -1.764501
v -3.438933 5.999311 -2.323036
v -3.188175 6.018822 -1.896561
v -3.270542 6.031485 -1.367160
v -3.568634 6.027003 -1.063101
v -4.007456 6.027417 -1.148342
v -4.249178 6.047149 -1.515981
v -4.245465 6.054890 -1.979544
v -3.946024 6.022752 -2.328392
v -3.181693 6.029824 -1.634111
v -3.799551 6.023481 -1.048728
v -3.267394 6.009516 -2.105625
v -3.704561 6.012746 -2.379881
v -3.898942 6.024014 -1.083215
v -3.686565 6.024119 -1.040881
v -4.152028 6.034693 -1.308628
v -3.388805 6.026196 -1.190030
v -4.280106 6.052115 -1.758182
v -3.212781 6.030776 -1.509061
v -4.125086 6.037824 -2.192844
v -3.173470 6.024493 -1.760234
v -3.446921 6.004629 -2.300976
v -3.200736 6.008026 -1.889899
v -3.281039 6.020372 -1.373757
v -3.571665 6.016003 -1.077314
v -3.999497 6.016406 -1.160420
v -4.235165 6.035644 -1.518851
v -4.231544 6.043191 -1.970803
v -3.939603 6.011857 -2.310914
v -3.194416 6.018753 -1.634022
v -3.796799 6.012568 -1.063301
v -3.277970 5.998953 -2.093727
v -3.704188 6.002102 -2.361114
v -3.893700 6.013088 -1.096924
v -3.686643 6.013191 -1.055650
v -4.140448 6.023499 -1.316692
v -3.396340 6.015215 -1.201064
v -4.265318 6.040486 -1.754986
v -3.224725 6.019681 -1.512104
v -4.114181 6.026552 -2.178762
v -3.186399 6.013555 -1.756987
v -3.453001 5.994188 -2.284185
vt 0.984442 0.044566
vt 0.922821 0.044566
vt 0.922821 0.006353
vt 0.984442 0.006353
vt 0.593056 0.044566
vt 0.564633 0.044566
vt 0.564633 0.006353
vt 0.593056 0.006353
vt 0.833682 0.044566
vt 0.801559 0.044566
vt 0.801559 0.006353
vt 0.833682 0.006353
vt 0.676339 0.044566
vt 0.622369 0.044566
vt 0.622369 0.006353
vt 0.676339 0.006353
vt 0.538432 0.044566
vt 0.507076 0.044566
vt 0.507076 0.006353
vt 0.538432 0.006353
vt 0.329105 0.044566
vt 0.268575 0.044566
vt 0.268575 0.006353
vt 0.329105 0.006353
vt 0.868521 0.044566
vt 0.868521 0.006353
vt 0.083234 0.044566
vt 0.018412 0.044566
vt 0.018412 0.006353
vt 0.083234 0.006353
vt 0.452853 0.044566
vt 0.393163 0.044566
vt 0.393163 0.006353
vt 0.452853 0.006353
vt 0.768554 0.044566
vt 0.729753 0.044566
vt 0.729753 0.006353
vt 0.768554 0.006353
vt 0.204124 0.044566
vt 0.144260 0.044566
vt 0.144260 0.006353
vt 0.204124 0.006353
vt 0.868521 0.087352
vt 0.833682 0.087352
vt 0.268575 0.087352
vt 0.204124 0.087352
vt 0.393163 0.087352
vt 0.329105 0.087352
vt 0.801559 0.087352
vt 0.768554 0.087352
vt 0.729753 0.087352
vt 0.676339 0.087352
vt 0.507076 0.087352
vt 0.452853 0.087352
vt 0.622369 0.087352
vt 0.593056 0.087352
vt 0.564633 0.087352
vt 0.538432 0.087352
vt 0.144260 0.087352
vt 0.083234 0.087352
vt 0.018412 0.087352
vt 0.922821 0.087352
vt 0.984442 0.087352
vt 0.984442 0.107238
vt 0.922821 0.107238
vt 0.593056 0.107238
vt 0.564633 0.107238
vt 0.833682 0.107238
vt 0.801559 0.107238
vt 0.868521 0.107238
vt 0.768554 0.107238
vt 0.729753 0.107238
vt 0.676339 0.107238
vt 0.622369 0.107238
vt 0.538432 0.107238
vt 0.507076 0.107238
vt 0.452853 0.107238
vt 0.393163 0.107238
vt 0.329105 0.107238
vt 0.268575 0.107238
vt 0.204124 0.107238
vt 0.144260 0.107238
vt 0.083234 0.107238
vt 0.018412 0.107238
vt 0.329105 0.121707
vt 0.268575 0.121707
vt 0.593056 0.121707
vt 0.564633 0.121707
vt 0.393163 0.121707
vt 0.204124 0.121707
vt 0.144260 0.121707
vt 0.833682 0.121707
vt 0.801559 0.121707
vt 0.768554 0.121707
vt 0.083234 0.121707
vt 0.018412 0.121707
vt 0.922821 0.121707
vt 0.868521 0.121707
vt 0.729753 0.121707
vt 0.538432 0.121707
vt 0.676339 0.121707
vt 0.622369 0.121707
vt 0.507076 0.121707
vt 0.452853 0.121707
vt 0.984442 0.121707
vt 0.922821 0.131989
vt 0.868521 0.131989
vt 0.268575 0.131989
vt 0.204124 0.131989
vt 0.144260 0.131989
vt 0.083234 0.131989
vt 0.768554 0.131989
vt 0.729753 0.131989
vt 0.833682 0.131989
vt 0.564633 0.131989
vt 0.538432 0.131989
vt 0.676339 0.131989
vt 0.622369 0.131989
vt 0.593056 0.131989
vt 0.507076 0.131989
vt 0.452853 0.131989
vt 0.393163 0.131989
vt 0.984442 0.131989
vt 0.329105 0.131989
vt 0.801559 0.131989
vt 0.018412 0.131989
vn 0.5278 -0.1643 -0.8333
vn 0.8435 -0.1554 -0.5141
vn 0.8451 -0.1465 -0.5142
vn 0.5338 -0.1586 -0.8306
vn 0.0555 -0.1744 0.9831
vn -0.2010 -0.1751 0.9638
vn -0.2033 -0.1740 0.9635
vn 0.0525 -0.1731 0.9835
vn 0.9880 -0.1543 -0.0024
vn 0.9719 -0.1596 0.1731
vn 0.9713 -0.1530 0.1822
vn 0.9889 -0.1482 0.0037
vn 0.7062 -0.1704 0.6872
vn 0.3824 -0.1740 0.9075
vn 0.3821 -0.1721 0.9079
vn 0.7024 -0.1665 0.6919
vn -0.4201 -0.1749 0.8904
vn -0.6305 -0.1771 0.7556
vn -0.6265 -0.1772 0.7590
vn -0.4189 -0.1745 0.8911
vn -0.9702 -0.2402 -0.0312
vn -0.9179 -0.2533 -0.3053
vn -0.9201 -0.2496 -0.3017
vn -0.9705 -0.2393 -0.0292
vn 0.9631 -0.1525 -0.2218
vn 0.9644 -0.1442 -0.2218
vn 0.0327 -0.1819 -0.9828
vn 0.0441 -0.1820 -0.9823
vn -0.8263 -0.1879 0.5310
vn -0.9446 -0.2131 0.2495
vn -0.9429 -0.2134 0.2558
vn -0.8218 -0.1883 0.5376
vn 0.9337 -0.1640 0.3183
vn 0.8704 -0.1669 0.4631
vn 0.8697 -0.1590 0.4672
vn 0.9333 -0.1550 0.3240
vn -0.7578 -0.2454 -0.6045
vn -0.4382 -0.2158 -0.8726
vn -0.4332 -0.2182 -0.8745
vn -0.7631 -0.2444 -0.5982
vn 0.9604 -0.1670 -0.2227
vn 0.9860 -0.1661 -0.0114
vn -0.9167 -0.2508 -0.3111
vn -0.7448 -0.2387 -0.6231
vn -0.9440 -0.2040 0.2593
vn -0.9716 -0.2352 -0.0242
vn 0.9720 -0.1717 0.1607
vn 0.9340 -0.1783 0.3094
vn 0.8699 -0.1810 0.4588
vn 0.7065 -0.1803 0.6843
vn -0.6316 -0.1709 0.7562
vn -0.8261 -0.1792 0.5342
vn 0.3847 -0.1794 0.9054
vn 0.0590 -0.1764 0.9825
vn -0.1982 -0.1745 0.9645
vn -0.4201 -0.1715 0.8911
vn -0.4246 -0.2073 -0.8813
vn 0.0341 -0.1787 -0.9833
vn 0.5254 -0.1700 -0.8337
vn 0.8408 -0.1691 -0.5142
vn 0.4618 0.4985 -0.7336
vn 0.7253 0.5073 -0.4653
vn 0.0432 0.5197 0.8532
vn -0.1699 0.5217 0.8360
vn 0.8513 0.5232 -0.0401
vn 0.8434 0.5244 0.1169
vn 0.8263 0.5180 -0.2212
vn 0.8147 0.5171 0.2624
vn 0.7540 0.5157 0.4069
vn 0.6174 0.4958 0.6107
vn 0.3275 0.5092 0.7958
vn -0.3517 0.5270 0.7736
vn -0.5285 0.5236 0.6682
vn -0.7002 0.5207 0.4884
vn -0.8137 0.5244 0.2507
vn -0.8565 0.5160 -0.0086
vn -0.7972 0.5252 -0.2976
vn -0.6283 0.5102 -0.5873
vn -0.3388 0.5105 -0.7902
vn 0.0487 0.5110 -0.8582
vn 0.1950 0.9804 0.0256
vn 0.1815 0.9824 0.0439
vn -0.0231 0.9859 -0.1655
vn 0.0320 0.9866 -0.1601
vn 0.1937 0.9810 -0.0138
vn 0.1596 0.9855 0.0571
vn 0.0992 0.9908 0.0912
vn -0.1974 0.9798 -0.0322
vn -0.1966 0.9791 -0.0510
vn -0.1978 0.9778 -0.0694
vn 0.0355 0.9944 0.0997
vn -0.0334 0.9958 0.0849
vn -0.1215 0.9911 0.0534
vn -0.1749 0.9845 0.0074
vn -0.1811 0.9796 -0.0872
vn 0.0867 0.9846 -0.1516
vn -0.1195 0.9863 -0.1135
vn -0.0579 0.9889 -0.1371
vn 0.1285 0.9851 -0.1138
vn 0.1745 0.9826 -0.0634
vn -0.5152 0.8149 0.2655
vn -0.6160 0.7808 0.1038
vn 0.5721 0.8035 0.1643
vn 0.4595 0.8322 0.3103
vn 0.2577 0.8596 0.4411
vn 0.0027 0.8698 0.4933
vn -0.6352 0.7423 -0.2132
vn -0.5953 0.7434 -0.3050
vn -0.6492 0.7602 -0.0237
vn 0.1192 0.8054 -0.5806
vn 0.2673 0.8007 -0.5360
vn -0.4772 0.7639 -0.4344
vn -0.2587 0.7898 -0.5561
vn -0.0487 0.8030 -0.5939
vn 0.4095 0.7922 -0.4524
vn 0.5368 0.7825 -0.3154
vn 0.6085 0.7790 -0.1514
vn -0.2907 0.8562 0.4271
vn 0.6165 0.7872 0.0117
vn -0.6519 0.7481 -0.1237
s 1
f 30/1/1 34/2/2 44/3/3 45/4/4
f 37/5/5 33/6/6 52/7/7 46/8/8
f 43/9/9 32/10/10 59/11/11 48/12/12
f 39/13/13 31/14/14 47/15/15 49/16/16
f 36/17/17 26/18/18 14/19/19 51/20/20
f 41/21/21 24/22/22 12/23/23 53/24/24
f 34/2/2 25/25/25 13/26/26 44/3/3
f 35/27/27 30/28/1 45/29/4 55/30/28
f 38/31/29 29/32/30 54/33/31 57/34/32
f 40/35/33 28/36/34 50/37/35 58/38/36
f 42/39/37 27/40/38 56/41/39 60/42/40
f 27/40/38 35/27/27 55/30/28 56/41/39
f 33/6/6 36/17/17 51/20/20 52/7/7
f 31/14/14 37/5/5 46/8/8 47/15/15
f 26/18/18 38/31/29 57/34/32 14/19/19
f 28/36/34 39/13/13 49/16/16 50/37/35
f 32/10/10 40/35/33 58/38/36 59/11/11
f 29/32/30 41/21/21 53/24/24 54/33/31
f 24/22/22 42/39/37 60/42/40 12/23/23
f 25/25/25 43/9/9 48/12/12 13/26/26
f 2/43/41 23/44/42 43/9/9 25/25/25
f 7/45/43 22/46/44 42/39/37 24/22/22
f 6/47/45 21/48/46 41/21/21 29/32/30
f 9/49/47 20/50/48 40/35/33 32/10/10
f 3/51/49 19/52/50 39/13/13 28/36/34
f 5/53/51 18/54/52 38/31/29 26/18/18
f 4/55/53 17/56/54 37/5/5 31/14/14
f 10/57/55 16/58/56 36/17/17 33/6/6
f 8/59/57 15/60/58 35/27/27 27/40/38
f 22/46/44 8/59/57 27/40/38 42/39/37
f 20/50/48 3/51/49 28/36/34 40/35/33
f 18/54/52 6/47/45 29/32/30 38/31/29
f 15/60/58 1/61/59 30/28/1 35/27/27
f 11/62/60 2/43/41 25/25/25 34/2/2
f 21/48/46 7/45/43 24/22/22 41/21/21
f 16/58/56 5/53/51 26/18/18 36/17/17
f 19/52/50 4/55/53 31/14/14 39/13/13
f 23/44/42 9/49/47 32/10/10 43/9/9
f 17/56/54 10/57/55 33/6/6 37/5/5
f 1/63/59 11/62/60 34/2/2 30/1/1
f 1/63/59 80/64/61 70/65/62 11/62/60
f 17/56/54 73/66/63 69/67/64 10/57/55
f 23/44/42 79/68/65 68/69/66 9/49/47
f 11/62/60 70/65/62 61/70/67 2/43/41
f 20/50/48 77/71/68 62/72/69 3/51/49
f 19/52/50 75/73/70 63/74/71 4/55/53
f 16/58/56 72/75/72 64/76/73 5/53/51
f 18/54/52 74/77/74 65/78/75 6/47/45
f 21/48/46 76/79/76 66/80/77 7/45/43
f 22/46/44 78/81/78 67/82/79 8/59/57
f 15/60/58 71/83/80 80/84/61 1/61/59
f 8/59/57 67/82/79 71/83/80 15/60/58
f 10/57/55 69/67/64 72/75/72 16/58/56
f 4/55/53 63/74/71 73/66/63 17/56/54
f 5/53/51 64/76/73 74/77/74 18/54/52
f 3/51/49 62/72/69 75/73/70 19/52/50
f 6/47/45 65/78/75 76/79/76 21/48/46
f 9/49/47 68/69/66 77/71/68 20/50/48
f 7/45/43 66/80/77 78/81/78 22/46/44
f 2/43/41 61/70/67 79/68/65 23/44/42
f 66/80/77 76/79/76 96/85/81 86/86/82
f 69/67/64 73/66/63 93/87/83 89/88/84
f 76/79/76 65/78/75 85/89/85 96/85/81
f 67/82/79 78/81/78 98/90/86 87/91/87
f 68/69/66 79/68/65 99/92/88 88/93/89
f 77/71/68 68/69/66 88/93/89 97/94/90
f 80/84/61 71/83/80 91/95/91 100/96/92
f 61/70/67 70/65/62 90/97/93 81/98/94
f 78/81/78 66/80/77 86/86/82 98/90/86
f 71/83/80 67/82/79 87/91/87 91/95/91
f 62/72/69 77/71/68 97/94/90 82/99/95
f 79/68/65 61/70/67 81/98/94 99/92/88
f 72/75/72 69/67/64 89/88/84 92/100/96
f 63/74/71 75/73/70 95/101/97 83/102/98
f 73/66/63 63/74/71 83/102/98 93/87/83
f 64/76/73 72/75/72 92/100/96 84/103/99
f 74/77/74 64/76/73 84/103/99 94/104/100
f 65/78/75 74/77/74 94/104/100 85/89/85
f 70/65/62 80/64/61 100/105/92 90/97/93
f 75/73/70 62/72/69 82/99/95 95/101/97
f 81/98/94 90/97/93 110/106/101 101/107/102
f 98/90/86 86/86/82 106/108/103 118/109/104
f 91/95/91 87/91/87 107/110/105 111/111/106
f 82/99/95 97/94/90 117/112/107 102/113/108
f 99/92/88 81/98/94 101/107/102 119/114/109
f 92/100/96 89/88/84 109/115/110 112/116/111
f 83/102/98 95/101/97 115/117/112 103/118/113
f 93/87/83 83/102/98 103/118/113 113/119/114
f 84/103/99 92/100/96 112/116/111 104/120/115
f 94/104/100 84/103/99 104/120/115 114/121/116
f 85/89/85 94/104/100 114/121/116 105/122/117
f 90/97/93 100/105/92 120/123/118 110/106/101
f 95/101/97 82/99/95 102/113/108 115/117/112
f 86/86/82 96/85/81 116/124/119 106/108/103
f 89/88/84 93/87/83 113/119/114 109/115/110
f 96/85/81 85/89/85 105/122/117 116/124/119
f 87/91/87 98/90/86 118/109/104 107/110/105
f 88/93/89 99/92/88 119/114/109 108/125/120
f 97/94/90 88/93/89 108/125/120 117/112/107
f 100/96/92 91/95/91 111/111/106 120/126/118
