# Blender v2.79 (sub 0) OBJ File: 'sockexplodedretopo_half.blend'
# www.blender.org
o heel_Cylinder.002
v -4.003088 3.372035 -2.120140
v -3.911187 3.377264 -2.273081
v -3.913078 3.195029 -2.287707
v -4.004900 3.186220 -2.133789
v -3.124446 3.291983 -1.838588
v -3.104786 3.113811 -1.865306
v -3.141267 3.120994 -2.100035
v -3.149825 3.294601 -2.062393
v -3.706886 3.371294 -2.414834
v -3.473679 3.356312 -2.420931
v -3.470509 3.180916 -2.452632
v -3.712960 3.191638 -2.436871
v -3.278100 3.323508 -2.320463
v -3.276259 3.147361 -2.360652
v -3.905764 2.968411 -2.029318
v -3.831614 2.975138 -2.181224
v -3.788660 2.932146 -2.001439
v -3.832025 2.932319 -1.870682
v -3.217890 2.956964 -1.772699
v -3.223658 2.957861 -1.550667
v -3.321729 2.937589 -1.446988
v -3.309894 2.934247 -1.651671
v -3.409059 2.924569 -1.672045
v -3.428018 2.927276 -1.477607
v -3.695672 2.923062 -1.794316
v -3.541023 2.921474 -1.728526
v -3.569383 2.923787 -1.545364
v -3.734611 2.925224 -1.624490
v -3.334630 2.949369 -2.150450
v -3.385912 2.925525 -1.882339
v -3.513817 2.921682 -1.936532
v -3.486838 2.952950 -2.261706
v -3.670335 2.954169 -2.262120
v -3.664375 2.923287 -1.979050
v -3.687438 3.053237 -2.413954
v -3.858705 3.074338 -2.303787
v -3.279061 3.025392 -2.290927
v -3.463492 3.050081 -2.424884
v -3.105416 3.112006 -1.642920
v -3.137107 3.011575 -1.656242
v -3.141778 3.014924 -1.891666
v -3.950217 3.062044 -2.163239
v -3.287914 3.461273 -2.265835
v -3.173540 3.431570 -2.033225
v -3.699572 3.510702 -2.385183
v -3.478516 3.489722 -2.383255
v -3.156709 3.431933 -1.822133
v -3.984162 3.516678 -2.110738
v -3.891299 3.517864 -2.261670
v -3.173887 3.030591 -2.113506
v -3.231424 2.963503 -1.993979
v -3.301278 2.935105 -1.832070
v -3.880807 2.934978 -1.710353
v -3.866938 3.659441 -2.246611
v -3.688324 3.651677 -2.352642
v -3.484033 3.627157 -2.341567
v -3.301054 3.604514 -2.207951
v -3.965197 3.663950 -2.100996
v -3.188745 3.579049 -1.804481
v -3.200317 3.575337 -2.002150
v -4.019350 3.052987 -1.990293
v -3.962014 2.969209 -1.860314
v -3.217035 3.582453 -1.612809
v -3.179184 3.431713 -1.621110
v -4.027545 3.659534 -1.931610
v -4.043110 3.508451 -1.942591
v -4.062009 3.361746 -1.953451
v -3.136089 3.289073 -1.628013
v -4.066830 3.176516 -1.969566
vt 0.819456 0.422244
vt 0.737646 0.471295
vt 0.690043 0.398552
vt 0.757227 0.341827
vt 0.191107 0.444550
vt 0.243923 0.362013
vt 0.341979 0.414051
vt 0.302770 0.484480
vt 0.626582 0.514484
vt 0.524663 0.530785
vt 0.517081 0.461402
vt 0.600698 0.444296
vt 0.429637 0.518923
vt 0.445210 0.449979
vt 0.661692 0.228770
vt 0.624155 0.304017
vt 0.593414 0.217249
vt 0.607591 0.138408
vt 0.272304 0.244043
vt 0.180400 0.138943
vt 0.191866 0.040482
vt 0.268193 0.152312
vt 0.325693 0.125847
vt 0.263491 0.013849
vt 0.514645 0.113523
vt 0.412704 0.113817
vt 0.371930 0.000083
vt 0.500173 0.000083
vt 0.426595 0.345133
vt 0.381167 0.231355
vt 0.450981 0.222962
vt 0.495190 0.355774
vt 0.559824 0.339718
vt 0.528342 0.216323
vt 0.575719 0.400745
vt 0.642578 0.367742
vt 0.436743 0.403664
vt 0.506998 0.418224
vt 0.132492 0.291924
vt 0.178106 0.238812
vt 0.284909 0.324526
vt 0.692113 0.312291
vt 0.411101 0.589679
vt 0.274702 0.553679
vt 0.648282 0.582373
vt 0.530739 0.597544
vt 0.155835 0.521301
vt 0.859315 0.497668
vt 0.765914 0.541149
vt 0.366128 0.381645
vt 0.353502 0.321131
vt 0.329286 0.237215
vt 0.616975 0.027244
vt 0.795749 0.622028
vt 0.672612 0.665478
vt 0.538541 0.685881
vt 0.387450 0.678483
vt 0.897388 0.579949
vt 0.119662 0.608363
vt 0.243663 0.638174
vt 0.754653 0.221570
vt 0.695937 0.121280
vt 0.000083 0.576049
vt 0.036005 0.483270
vt 0.999917 0.528483
vt 0.954912 0.443000
vt 0.906818 0.361940
vt 0.073326 0.394899
vt 0.833335 0.267985
vn -0.9013 0.0978 -0.4221
vn -0.7281 0.1195 -0.6749
vn -0.7402 -0.0808 -0.6675
vn -0.8933 -0.1181 -0.4336
vn 0.9840 0.1762 -0.0278
vn 0.9924 -0.1032 -0.0665
vn 0.9468 -0.0937 -0.3077
vn 0.9479 0.1677 -0.2709
vn -0.3005 0.1712 -0.9383
vn 0.2424 0.2271 -0.9432
vn 0.2063 -0.0330 -0.9779
vn -0.3380 -0.0347 -0.9405
vn 0.7123 0.2180 -0.6672
vn 0.6768 -0.0755 -0.7323
vn -0.4605 -0.8625 -0.2100
vn -0.3852 -0.8647 -0.3223
vn -0.1680 -0.9803 -0.1039
vn -0.1714 -0.9839 -0.0514
vn 0.4238 -0.9056 -0.0190
vn 0.3224 -0.9465 0.0144
vn 0.1442 -0.9893 0.0213
vn 0.1727 -0.9849 0.0128
vn 0.0590 -0.9982 0.0109
vn 0.0609 -0.9980 0.0194
vn -0.0376 -0.9993 -0.0023
vn 0.0053 -1.0000 0.0057
vn 0.0044 -0.9999 0.0132
vn -0.0353 -0.9994 0.0047
vn 0.2614 -0.9400 -0.2192
vn 0.0971 -0.9946 -0.0374
vn 0.0194 -0.9986 -0.0486
vn 0.0837 -0.9400 -0.3309
vn -0.1474 -0.9235 -0.3543
vn -0.0457 -0.9968 -0.0658
vn -0.2674 -0.5374 -0.7998
vn -0.6070 -0.4894 -0.6262
vn 0.5723 -0.6120 -0.5459
vn 0.1829 -0.5703 -0.8008
vn 0.9966 -0.0813 0.0104
vn 0.7606 -0.6492 -0.0071
vn 0.8004 -0.5924 -0.0914
vn -0.7505 -0.5126 -0.4172
vn 0.7336 0.2824 -0.6181
vn 0.9417 0.2283 -0.2472
vn -0.2602 0.2278 -0.9383
vn 0.2923 0.2873 -0.9122
vn 0.9746 0.2237 0.0100
vn -0.8915 0.1502 -0.4274
vn -0.6991 0.1793 -0.6922
vn 0.7634 -0.5715 -0.3010
vn 0.4142 -0.9033 -0.1117
vn 0.1970 -0.9801 -0.0230
vn -0.1324 -0.9908 -0.0266
vn -0.6833 0.1924 -0.7043
vn -0.2469 0.2401 -0.9388
vn 0.3127 0.2932 -0.9035
vn 0.7561 0.2848 -0.5892
vn -0.8871 0.1516 -0.4360
vn 0.9762 0.2140 0.0356
vn 0.9460 0.2301 -0.2284
vn -0.7713 -0.5562 -0.3095
vn -0.3839 -0.9144 -0.1285
vn 0.9685 0.2165 0.1234
vn 0.9670 0.2327 0.1037
vn -0.9345 0.1311 -0.3309
vn -0.9352 0.1376 -0.3262
vn -0.9388 0.0938 -0.3314
vn 0.9789 0.1964 0.0569
vn -0.9282 -0.1122 -0.3548
s 1
f 1/1/1 2/2/2 3/3/3 4/4/4
f 5/5/5 6/6/6 7/7/7 8/8/8
f 9/9/9 10/10/10 11/11/11 12/12/12
f 13/13/13 8/8/8 7/7/7 14/14/14
f 15/15/15 16/16/16 17/17/17 18/18/18
f 19/19/19 20/20/20 21/21/21 22/22/22
f 23/23/23 22/22/22 21/21/21 24/24/24
f 25/25/25 26/26/26 27/27/27 28/28/28
f 29/29/29 30/30/30 31/31/31 32/32/32
f 33/33/33 34/34/34 17/17/17 16/16/16
f 12/12/12 35/35/35 36/36/36 3/3/3
f 14/14/14 37/37/37 38/38/38 11/11/11
f 6/6/6 39/39/39 40/40/40 41/41/41
f 4/4/4 3/3/3 36/36/36 42/42/42
f 43/43/43 44/44/44 8/8/8 13/13/13
f 45/45/45 46/46/46 10/10/10 9/9/9
f 47/47/47 5/5/5 8/8/8 44/44/44
f 48/48/48 49/49/49 2/2/2 1/1/1
f 46/46/46 43/43/43 13/13/13 10/10/10
f 7/7/7 50/50/50 37/37/37 14/14/14
f 51/51/51 52/52/52 30/30/30 29/29/29
f 26/26/26 23/23/23 24/24/24 27/27/27
f 10/10/10 13/13/13 14/14/14 11/11/11
f 49/49/49 45/45/45 9/9/9 2/2/2
f 11/11/11 38/38/38 35/35/35 12/12/12
f 32/32/32 31/31/31 34/34/34 33/33/33
f 18/18/18 25/25/25 28/28/28 53/53/53
f 2/2/2 9/9/9 12/12/12 3/3/3
f 38/38/38 32/32/32 33/33/33 35/35/35
f 54/54/54 55/55/55 45/45/45 49/49/49
f 50/50/50 51/51/51 29/29/29 37/37/37
f 56/56/56 57/57/57 43/43/43 46/46/46
f 58/58/58 54/54/54 49/49/49 48/48/48
f 59/59/59 47/47/47 44/44/44 60/60/60
f 55/55/55 56/56/56 46/46/46 45/45/45
f 57/57/57 60/60/60 44/44/44 43/43/43
f 35/35/35 33/33/33 16/16/16 36/36/36
f 37/37/37 29/29/29 32/32/32 38/38/38
f 41/41/41 40/40/40 20/20/20 19/19/19
f 42/42/42 36/36/36 16/16/16 15/15/15
f 61/61/61 42/42/42 15/15/15 62/62/62
f 50/50/50 41/41/41 19/19/19 51/51/51
f 63/63/63 64/64/64 47/47/47 59/59/59
f 65/65/65 58/58/58 48/48/48 66/66/66
f 17/17/17 34/34/34 25/25/25 18/18/18
f 31/31/31 30/30/30 23/23/23 26/26/26
f 66/66/66 48/48/48 1/1/1 67/67/67
f 64/64/64 68/68/68 5/5/5 47/47/47
f 69/69/69 4/4/4 42/42/42 61/61/61
f 7/7/7 6/6/6 41/41/41 50/50/50
f 34/34/34 31/31/31 26/26/26 25/25/25
f 30/30/30 52/52/52 22/22/22 23/23/23
f 51/51/51 19/19/19 22/22/22 52/52/52
f 62/62/62 15/15/15 18/18/18 53/53/53
f 68/68/68 39/39/39 6/6/6 5/5/5
f 67/67/67 1/1/1 4/4/4 69/69/69
