# Blender v2.79 (sub 0) OBJ File: 'sockexplodedretopo_half.blend'
# www.blender.org
o body.005_Cylinder.008
v -3.613062 4.301830 -1.139597
v -3.419845 4.358684 -1.308861
v -3.309707 4.362679 -1.888323
v -3.499953 4.359015 -2.196282
v -3.812023 4.369573 -2.196077
v -4.026140 4.397562 -1.896232
v -4.061439 4.355271 -1.492112
v -3.909218 4.280310 -1.205280
v -3.336723 4.365031 -1.593396
v -3.768185 4.291853 -1.139418
v -3.357913 4.362108 -2.041610
v -3.663276 4.363319 -2.242479
v -3.837699 4.284180 -1.161603
v -3.688927 4.296859 -1.130043
v -4.004995 4.318574 -1.326693
v -3.505301 4.335313 -1.201714
v -4.067607 4.381262 -1.704952
v -3.369092 4.363515 -1.451658
v -3.942369 4.385472 -2.065891
v -3.310878 4.364408 -1.741579
v -3.587528 4.158837 -1.068087
v -3.297605 4.213972 -1.897341
v -4.023604 4.259851 -1.900567
v -3.935307 4.146634 -1.151575
v -3.326987 4.212582 -1.585311
v -3.778085 4.143214 -1.075816
v -3.351785 4.218361 -2.058167
v -3.660719 4.223353 -2.255355
v -3.851207 4.144219 -1.100032
v -3.685141 4.146152 -1.062464
v -3.483354 4.181947 -1.156790
v -4.019533 4.159206 -1.296860
v -3.355576 4.209047 -1.438173
v -4.067529 4.235617 -1.697987
v -3.300286 4.216812 -1.742284
v -3.940711 4.247526 -2.073534
v -4.066113 4.198534 -1.472779
v -3.401244 4.200571 -1.284882
v -3.810732 4.229705 -2.205122
v -3.498512 4.218068 -2.209693
v -3.613557 4.396013 -1.158672
v -3.312561 4.447998 -1.885829
v -4.028889 4.480995 -1.894559
v -3.902683 4.379227 -1.218605
v -3.336407 4.450805 -1.603189
v -3.765994 4.387928 -1.156590
v -3.362843 4.445021 -2.037911
v -3.667603 4.444532 -2.235416
v -3.834136 4.381917 -1.178038
v -3.688270 4.391820 -1.148273
v -3.504120 4.425405 -1.220819
v -4.001225 4.411847 -1.335417
v -4.069626 4.466421 -1.705321
v -3.369375 4.449738 -1.468317
v -3.311521 4.450010 -1.744625
v -3.945299 4.468113 -2.060962
v -3.419611 4.445863 -1.330457
v -3.504716 4.439751 -2.190822
v -3.816397 4.451900 -2.189193
v -4.060760 4.443615 -1.495291
v -3.615559 4.401308 -1.173282
v -3.324244 4.451621 -1.877052
v -4.017532 4.483557 -1.885500
v -3.895385 4.385062 -1.231288
v -3.347322 4.454338 -1.603501
v -3.763092 4.393482 -1.171267
v -3.372908 4.448739 -2.024242
v -3.667866 4.448267 -2.215394
v -3.829043 4.387666 -1.192025
v -3.687868 4.397250 -1.163218
v -3.509641 4.429754 -1.233430
v -3.990758 4.416632 -1.344343
v -4.056959 4.469451 -1.702349
v -3.379230 4.453305 -1.472968
v -3.323237 4.453568 -1.740389
v -3.936630 4.471089 -2.046551
v -3.427850 4.449554 -1.339542
v -3.510218 4.443639 -2.172235
v -3.811874 4.455398 -2.170658
v -4.048378 4.447379 -1.499074
v -3.615559 4.401308 -1.173282
v -3.324244 4.451621 -1.877052
v -4.017532 4.483557 -1.885500
v -3.895385 4.385062 -1.231288
v -3.347322 4.454338 -1.603501
v -3.763092 4.393482 -1.171267
v -3.372908 4.448739 -2.024242
v -3.667866 4.448267 -2.215394
v -3.829043 4.387666 -1.192025
v -3.687868 4.397250 -1.163218
v -3.509641 4.429754 -1.233430
v -3.990758 4.416632 -1.344343
v -4.056959 4.469451 -1.702349
v -3.379230 4.453305 -1.472968
v -3.323237 4.453568 -1.740389
v -3.936630 4.471089 -2.046551
v -3.427850 4.449554 -1.339542
v -3.510218 4.443639 -2.172235
v -3.811874 4.455398 -2.170658
v -4.048378 4.447379 -1.499074
v -3.616140 4.401653 -1.177527
v -3.327638 4.451480 -1.874501
v -4.014232 4.483108 -1.882868
v -3.893265 4.385564 -1.234972
v -3.350494 4.454171 -1.603592
v -3.762249 4.393903 -1.175532
v -3.375833 4.448627 -2.020270
v -3.667942 4.448158 -2.209577
v -3.827563 4.388143 -1.196089
v -3.687751 4.397635 -1.167560
v -3.511245 4.429825 -1.237094
v -3.987717 4.416829 -1.346936
v -4.053278 4.469139 -1.701486
v -3.382093 4.453148 -1.474319
v -3.326641 4.453408 -1.739158
v -3.934111 4.470760 -2.042364
v -3.430244 4.449434 -1.342181
v -3.511817 4.443576 -2.166834
v -3.810560 4.455221 -2.165273
v -4.044780 4.447280 -1.500174
vt 0.664024 0.119455
vt 0.663181 0.066940
vt 0.724414 0.066940
vt 0.724754 0.119455
vt 0.900414 0.119455
vt 0.901085 0.066940
vt 0.946580 0.066940
vt 0.946412 0.119455
vt 0.280005 0.119455
vt 0.275479 0.066940
vt 0.333538 0.066940
vt 0.334861 0.119455
vt 0.559591 0.119455
vt 0.559287 0.066940
vt 0.600254 0.066940
vt 0.600251 0.119455
vt 0.789947 0.119455
vt 0.790566 0.066940
vt 0.847483 0.066940
vt 0.847046 0.119455
vt 0.976772 0.119455
vt 0.975241 0.066940
vt 0.995660 0.066940
vt 0.995523 0.119455
vt 0.064996 0.119455
vt 0.061749 0.066940
vt 0.110754 0.066940
vt 0.116958 0.119455
vt 0.379676 0.013280
vt 0.434737 0.013280
vt 0.443189 0.066940
vt 0.387909 0.066940
vt 0.388188 0.119455
vt 0.443024 0.119455
vt 0.169441 0.119455
vt 0.163296 0.066940
vt 0.220212 0.066940
vt 0.225729 0.119455
vt 0.481867 0.119455
vt 0.481844 0.066940
vt 0.522361 0.066940
vt 0.522000 0.119455
vt 0.014594 0.119455
vt 0.012005 0.066940
vt 0.320676 0.013280
vt 0.850073 0.013280
vt 0.903960 0.013280
vt 0.095610 0.013280
vt 0.148713 0.013280
vt 0.723197 0.013280
vt 0.791192 0.013280
vt 0.205436 0.013280
vt 0.260447 0.013280
vt 0.599254 0.013280
vt 0.663012 0.013280
vt 0.479237 0.013280
vt 0.522313 0.013280
vt 0.556837 0.013280
vt 0.948748 0.013280
vt 0.976470 0.013280
vt 0.003048 0.013280
vt 0.049189 0.013280
vt 0.996952 0.013280
vt 0.062227 0.131643
vt 0.012826 0.131643
vt 0.275619 0.131643
vt 0.222017 0.131643
vt 0.330241 0.131643
vt 0.519136 0.131643
vt 0.478630 0.131643
vt 0.787916 0.131643
vt 0.722871 0.131643
vt 0.943951 0.131643
vt 0.897904 0.131643
vt 0.166228 0.131643
vt 0.662015 0.131643
vt 0.598444 0.131643
vt 0.438954 0.131643
vt 0.383886 0.131643
vt 0.113951 0.131643
vt 0.993713 0.131643
vt 0.974333 0.131643
vt 0.557246 0.131643
vt 0.844673 0.131643
vt 0.660883 0.148952
vt 0.597836 0.148952
vt 0.721344 0.148952
vt 0.439376 0.148952
vt 0.384774 0.148952
vt 0.331490 0.148952
vt 0.116148 0.148952
vt 0.064941 0.148952
vt 0.478744 0.148952
vt 0.990984 0.148952
vt 0.971708 0.148952
vt 0.556985 0.148952
vt 0.519062 0.148952
vt 0.895629 0.148952
vt 0.842612 0.148952
vt 0.786045 0.148952
vt 0.941480 0.148952
vt 0.168142 0.148952
vt 0.016008 0.148952
vt 0.277133 0.148952
vt 0.223721 0.148952
vt 0.169013 0.159530
vt 0.117261 0.159530
vt 0.597929 0.159530
vt 0.557134 0.159530
vt 0.066222 0.159530
vt 0.017677 0.159530
vt 0.277363 0.159530
vt 0.224280 0.159530
vt 0.331533 0.159530
vt 0.519153 0.159530
vt 0.478775 0.159530
vt 0.785523 0.159530
vt 0.721088 0.159530
vt 0.940426 0.159530
vt 0.894720 0.159530
vt 0.660734 0.159530
vt 0.439352 0.159530
vt 0.384803 0.159530
vt 0.989936 0.159530
vt 0.970639 0.159530
vt 0.841872 0.159530
vn 0.6441 -0.5886 -0.4884
vn 0.8691 -0.1309 -0.4769
vn 0.9836 -0.0379 -0.1763
vn 0.7742 -0.5891 -0.2315
vn 0.6088 -0.6211 0.4936
vn 0.8121 -0.0120 0.5834
vn 0.5140 -0.0497 0.8563
vn 0.3845 -0.6115 0.6915
vn -0.7640 -0.6006 -0.2357
vn -0.9577 -0.0840 -0.2752
vn -0.8636 -0.1464 -0.4824
vn -0.6566 -0.6283 -0.4171
vn 0.3586 -0.6071 -0.7091
vn 0.4090 -0.2893 -0.8654
vn 0.6478 -0.2482 -0.7202
vn 0.5070 -0.5674 -0.6489
vn 0.8082 -0.5885 0.0234
vn 0.9955 0.0073 0.0950
vn 0.9441 0.0116 0.3295
vn 0.7328 -0.6262 0.2663
vn -0.0008 -0.6175 0.7865
vn 0.0116 -0.0833 0.9964
vn -0.5222 -0.0922 0.8478
vn -0.4097 -0.6115 0.6768
vn -0.6719 -0.6150 0.4127
vn -0.8611 -0.0804 0.5019
vn -0.9866 -0.0605 0.1515
vn -0.7894 -0.5979 0.1390
vn -0.6043 -0.3289 -0.7257
vn -0.2322 -0.4216 -0.8765
vn -0.2697 -0.3166 -0.9094
vn -0.6235 -0.2350 -0.7456
vn -0.4176 -0.6378 -0.6471
vn -0.1818 -0.6086 -0.7724
vn -0.8075 -0.5870 -0.0584
vn -0.9949 -0.0456 -0.0901
vn -0.9792 -0.0525 -0.1959
vn -0.7895 -0.5921 -0.1614
vn 0.0233 -0.6301 -0.7762
vn 0.0290 -0.3080 -0.9509
vn 0.2211 -0.2920 -0.9305
vn 0.2013 -0.6290 -0.7509
vn -0.8596 -0.1908 -0.4740
vn 0.9445 0.0028 0.3283
vn 0.8058 -0.0217 0.5917
vn -0.9845 -0.0822 0.1546
vn -0.9931 -0.0736 -0.0907
vn 0.9784 -0.0705 -0.1942
vn 0.9965 -0.0046 0.0835
vn -0.9786 -0.0800 -0.1894
vn -0.9580 -0.1129 -0.2636
vn 0.6202 -0.3488 -0.7026
vn 0.8564 -0.2067 -0.4731
vn 0.0536 -0.4165 -0.9075
vn 0.2188 -0.4013 -0.8894
vn 0.3865 -0.4013 -0.8304
vn 0.5052 -0.0554 0.8612
vn 0.0056 -0.0859 0.9963
vn -0.5131 -0.0957 0.8529
vn -0.8519 -0.0909 0.5156
vn -0.1377 -0.6887 0.7118
vn -0.0797 -0.6896 0.7198
vn -0.2235 -0.7202 0.6567
vn -0.2257 -0.7016 0.6758
vn -0.1796 -0.7781 0.6019
vn 0.1169 -0.8274 0.5493
vn 0.0386 -0.8455 0.5326
vn 0.1886 -0.7342 0.6522
vn 0.1904 -0.7770 0.5999
vn 0.0224 -0.6851 0.7281
vn 0.0621 -0.6796 0.7309
vn -0.2193 -0.7006 0.6789
vn 0.1490 -0.8306 0.5366
vn 0.1478 -0.8491 0.5072
vn 0.0305 -0.8661 0.4989
vn -0.0472 -0.8457 0.5316
vn -0.1916 -0.6957 0.6923
vn -0.0240 -0.6894 0.7240
vn 0.1753 -0.8183 0.5474
vn 0.1353 -0.7014 0.6997
vn -0.0658 -0.7197 0.6912
vn 0.0054 -0.7028 0.7113
vn -0.0500 -0.7114 0.7010
vn 0.0772 -0.6850 0.7244
vn 0.1217 -0.6778 0.7250
vn 0.0732 -0.6815 0.7281
vn 0.0314 -0.6659 0.7453
vn 0.0263 -0.6526 0.7572
vn 0.0366 -0.7056 0.7076
vn 0.0004 -0.6390 0.7692
vn -0.0252 -0.6391 0.7687
vn 0.0711 -0.7022 0.7084
vn 0.0607 -0.7087 0.7028
vn -0.0876 -0.6618 0.7445
vn -0.0758 -0.6804 0.7289
vn -0.0439 -0.7071 0.7057
vn -0.0540 -0.6482 0.7595
vn 0.0354 -0.6800 0.7324
vn 0.0386 -0.6938 0.7191
vn 0.0364 -0.6949 0.7181
vn 0.0520 -0.9985 0.0144
vn 0.0493 -0.9987 0.0105
vn -0.0149 -0.9895 -0.1433
vn 0.0996 -0.9918 -0.0801
vn 0.0421 -0.9991 0.0027
vn 0.0111 -0.9999 -0.0084
vn 0.0550 -0.9985 -0.0005
vn 0.0523 -0.9986 0.0093
vn 0.0901 -0.9953 -0.0362
vn 0.0852 -0.9930 -0.0812
vn 0.0512 -0.9949 -0.0867
vn -0.0613 -0.9932 -0.0984
vn -0.0683 -0.9886 -0.1342
vn -0.0969 -0.9952 -0.0090
vn -0.1347 -0.9909 0.0032
vn -0.0872 -0.9804 -0.1768
vn 0.1315 -0.9864 -0.0982
vn 0.1634 -0.9824 -0.0905
vn -0.0400 -0.9990 -0.0190
vn -0.0943 -0.9942 -0.0514
s 1
f 52/1/1 15/2/2 7/3/3 60/4/4
f 56/5/5 19/6/6 5/7/7 59/8/8
f 54/9/9 18/10/10 2/11/11 57/12/12
f 49/13/13 13/14/14 8/15/15 44/16/16
f 53/17/17 17/18/18 6/19/19 43/20/20
f 48/21/21 12/22/22 4/23/23 58/24/24
f 47/25/25 11/26/26 3/27/27 42/28/28
f 31/29/29 21/30/30 1/31/31 16/32/32
f 51/33/33 16/32/32 1/31/31 41/34/34
f 55/35/35 20/36/36 9/37/37 45/38/38
f 50/39/39 14/40/40 10/41/41 46/42/42
f 58/43/24 4/44/23 11/26/26 47/25/25
f 59/8/8 5/7/7 12/22/22 48/21/21
f 46/42/42 10/41/41 13/14/14 49/13/13
f 41/34/34 1/31/31 14/40/40 50/39/39
f 57/12/12 2/11/11 16/32/32 51/33/33
f 38/45/43 31/29/29 16/32/32 2/11/11
f 44/16/16 8/15/15 15/2/2 52/1/1
f 60/4/4 7/3/3 17/18/18 53/17/17
f 45/38/38 9/37/37 18/10/10 54/9/9
f 42/28/28 3/27/27 20/36/36 55/35/35
f 43/20/20 6/19/19 19/6/6 56/5/5
f 6/19/19 23/46/44 36/47/45 19/6/6
f 3/27/27 22/48/46 35/49/47 20/36/36
f 7/3/3 37/50/48 34/51/49 17/18/18
f 9/37/37 25/52/50 33/53/51 18/10/10
f 8/15/15 24/54/52 32/55/53 15/2/2
f 1/31/31 21/30/30 30/56/54 14/40/40
f 10/41/41 26/57/55 29/58/56 13/14/14
f 5/7/7 39/59/57 28/60/58 12/22/22
f 4/44/23 40/61/59 27/62/60 11/26/26
f 14/40/40 30/56/54 26/57/55 10/41/41
f 20/36/36 35/49/47 25/52/50 9/37/37
f 15/2/2 32/55/53 37/50/48 7/3/3
f 19/6/6 36/47/45 39/59/57 5/7/7
f 18/10/10 33/53/51 38/45/43 2/11/11
f 13/14/14 29/58/56 24/54/52 8/15/15
f 17/18/18 34/51/49 23/46/44 6/19/19
f 12/22/22 28/60/58 40/63/59 4/23/23
f 11/26/26 27/62/60 22/48/46 3/27/27
f 47/25/25 67/64/61 78/65/62 58/43/24
f 54/9/9 74/66/63 65/67/64 45/38/38
f 57/12/12 77/68/65 74/66/63 54/9/9
f 46/42/42 66/69/66 70/70/67 50/39/39
f 53/17/17 73/71/68 80/72/69 60/4/4
f 59/8/8 79/73/70 76/74/71 56/5/5
f 45/38/38 65/67/64 75/75/72 55/35/35
f 52/1/1 72/76/73 64/77/74 44/16/16
f 60/4/4 80/72/69 72/76/73 52/1/1
f 41/34/34 61/78/75 71/79/76 51/33/33
f 51/33/33 71/79/76 77/68/65 57/12/12
f 42/28/28 62/80/77 67/64/61 47/25/25
f 50/39/39 70/70/67 61/78/75 41/34/34
f 58/24/24 78/81/62 68/82/78 48/21/21
f 49/13/13 69/83/79 66/69/66 46/42/42
f 56/5/5 76/74/71 63/84/80 43/20/20
f 43/20/20 63/84/80 73/71/68 53/17/17
f 48/21/21 68/82/78 79/73/70 59/8/8
f 55/35/35 75/75/72 62/80/77 42/28/28
f 44/16/16 64/77/74 69/83/79 49/13/13
f 72/76/73 92/85/81 84/86/82 64/77/74
f 80/72/69 100/87/83 92/85/81 72/76/73
f 61/78/75 81/88/84 91/89/85 71/79/76
f 71/79/76 91/89/85 97/90/86 77/68/65
f 62/80/77 82/91/87 87/92/88 67/64/61
f 70/70/67 90/93/89 81/88/84 61/78/75
f 78/81/62 98/94/90 88/95/91 68/82/78
f 69/83/79 89/96/92 86/97/93 66/69/66
f 76/74/71 96/98/94 83/99/95 63/84/80
f 63/84/80 83/99/95 93/100/96 73/71/68
f 68/82/78 88/95/91 99/101/97 79/73/70
f 75/75/72 95/102/98 82/91/87 62/80/77
f 64/77/74 84/86/82 89/96/92 69/83/79
f 67/64/61 87/92/88 98/103/90 78/65/62
f 74/66/63 94/104/99 85/105/100 65/67/64
f 77/68/65 97/90/86 94/104/99 74/66/63
f 66/69/66 86/97/93 90/93/89 70/70/67
f 73/71/68 93/100/96 100/87/83 80/72/69
f 79/73/70 99/101/97 96/98/94 76/74/71
f 65/67/64 85/105/100 95/102/98 75/75/72
f 95/102/98 115/106/101 102/107/102 82/91/87
f 84/86/82 104/108/103 109/109/104 89/96/92
f 87/92/88 107/110/105 118/111/106 98/103/90
f 94/104/99 114/112/107 105/113/108 85/105/100
f 97/90/86 117/114/109 114/112/107 94/104/99
f 86/97/93 106/115/110 110/116/111 90/93/89
f 93/100/96 113/117/112 120/118/113 100/87/83
f 99/101/97 119/119/114 116/120/115 96/98/94
f 85/105/100 105/113/108 115/106/101 95/102/98
f 92/85/81 112/121/116 104/108/103 84/86/82
f 100/87/83 120/118/113 112/121/116 92/85/81
f 81/88/84 101/122/117 111/123/118 91/89/85
f 91/89/85 111/123/118 117/114/109 97/90/86
f 82/91/87 102/107/102 107/110/105 87/92/88
f 90/93/89 110/116/111 101/122/117 81/88/84
f 98/94/90 118/124/106 108/125/119 88/95/91
f 89/96/92 109/109/104 106/115/110 86/97/93
f 96/98/94 116/120/115 103/126/120 83/99/95
f 83/99/95 103/126/120 113/117/112 93/100/96
f 88/95/91 108/125/119 119/119/114 99/101/97
